<svg xmlns="http://www.w3.org/2000/svg" xmlns:xlink="http://www.w3.org/1999/xlink" viewBox="0 0 1024 745.6"><defs><linearGradient id="a" x1="31.1" y1="329.08" x2="1038.69" y2="1100.45" gradientTransform="translate(0 -233.2)" gradientUnits="userSpaceOnUse"><stop offset="0" stop-color="#30a0d2"/><stop offset="1" stop-color="#2a2f88"/></linearGradient></defs><title>comment</title><path d="M1024,139.2H0V788.88H419.67L512,884.8l92.31-95.92H1024ZM512,379.81c42.76,0,77.43,36,77.43,80.45S554.76,540.7,512,540.7s-77.42-36-77.42-80.44S469.24,379.81,512,379.81ZM244.42,540.7c-42.76,0-77.43-36-77.43-80.44s34.67-80.45,77.43-80.45,77.43,36,77.43,80.45S287.18,540.7,244.42,540.7Zm535.13,0c-42.76,0-77.43-36-77.43-80.44s34.67-80.45,77.43-80.45,77.42,36,77.42,80.45S822.36,540.7,779.6,540.7Z" transform="translate(0 -139.2)" style="fill:url(#a)"/></svg>