<svg xmlns="http://www.w3.org/2000/svg" xmlns:xlink="http://www.w3.org/1999/xlink" viewBox="0 0 783.76 665.57"><defs><linearGradient id="a" x1="512" y1="233.22" x2="512" y2="898.79" gradientTransform="translate(0 -131.22)" gradientUnits="userSpaceOnUse"><stop offset="0" stop-color="#0071bc"/><stop offset="1" stop-color="#2e3192"/></linearGradient></defs><title>heart</title><path d="M710.51,140A155.32,155.32,0,0,1,820.3,405.19L758.52,467,731.67,493.9l.18.18L512.18,713.75l-.18-.18-.18.18L292.15,494.08l.18-.18L265.42,467l-61.78-61.78A155.34,155.34,0,0,1,423.32,185.54l61.78,61.78,26.9,26.9,26.9-26.9,61.78-61.78A154.36,154.36,0,0,1,710.47,140m0-38a192.77,192.77,0,0,0-136.69,56.64L512,220.41l-61.78-61.74c-75.51-75.51-198-75.51-273.47,0h0c-75.51,75.51-75.51,198,0,273.47l61.78,61.78-.18.18L511.82,767.53l.18-.14.18.18,273.48-273.5-.18-.18,61.77-61.78c75.51-75.51,75.51-198,0-273.47h0A192.77,192.77,0,0,0,710.51,102Z" transform="translate(-120.12 -102)" style="fill:url(#a)"/></svg>