<svg xmlns="http://www.w3.org/2000/svg" xmlns:xlink="http://www.w3.org/1999/xlink" viewBox="-20 0 210 303.02">
  <style>
	 svg g,path {
      transform-origin: center center;
    }
    @keyframes head_wag {
      0% {
        transform: rotate(6deg) scale(0.96);
      }
      100% {
        transform: rotate(-6deg) scale(0.96);
      }
    }

    @keyframes eyebrow_wag {
      0% {
        transform: translate(0, 0px)
      }
      100% {
        transform: translate(0, 6px)
      }
    }

    @keyframes mouth_laugh {
      0% {
        transform: scale(1, 1)
      }
      100% {
        transform: scale(1, 1.3) translate(0, 5px)
      }
    }

    @keyframes right_arm_rot {
      0% {
        transform: rotate(-20deg);
      }
      100% {
        transform: rotate(20deg);
      }
    }

    @keyframes right_lower_elbow_rot {
      0% {
        transform: rotate(45deg);
      }
      100% {
        transform: rotate(-45deg);
      }
    }
	  
	 @keyframes left_arm_rot {
      0% {
        transform: rotate(-30deg);
      }
      100% {
        transform: rotate(10deg);
      }
    }
	 @keyframes left_hand_rot {
      0% {
        transform: rotate(-55deg);
      }
      100% {
        transform: rotate(30deg);
      }
    }


    #head {
      animation: head_wag 2s ease infinite alternate;
    }

    #left_eyebrow {
      animation: eyebrow_wag 2s ease infinite alternate;
    }

    #right_eyebrow {
      animation: eyebrow_wag 2.5s ease infinite alternate;
    }

    #mouth {
      animation: mouth_laugh 5s ease infinite alternate;
    }

    #right_arm {
      animation: right_arm_rot 2s ease infinite alternate;
      transform-origin: 59px 157px;
    }

    #right_arm .lower_elbow {
      animation: right_lower_elbow_rot 2s linear infinite alternate;
      transform-origin: 36px 181px;
    }

    #left_arm {
      animation: left_arm_rot 2s ease infinite alternate;
      transform-origin: 115px 159px;
    }
	  #left_arm .hand{
		   animation: left_hand_rot 2s ease infinite alternate;
    	  transform-origin: 170px 150px;
	  }
  </style>
  <defs>
    <linearGradient id="未命名的渐变_9" data-name="未命名的渐变 9" x1="8047.87" y1="541.09" x2="8047.87" y2="595.52" gradientTransform="translate(-7959.87 -361.21)"
      gradientUnits="userSpaceOnUse">
      <stop offset="0" stop-color="#29abe2" />
      <stop offset="1" stop-color="#0071bc" />
    </linearGradient>
    <linearGradient id="未命名的渐变_9-2" x1="8015.29" y1="523.51" x2="7986.86" y2="546.88" xlink:href="#未命名的渐变_9" />
    <linearGradient id="未命名的渐变_9-3" x1="7008.38" y1="1845.22" x2="7039.55" y2="1876.39" gradientTransform="matrix(0.92, -0.4, 0.4, 0.92, -7043.81, 1255.69)"
      xlink:href="#未命名的渐变_9" />
    <linearGradient id="未命名的渐变_98" data-name="未命名的渐变 98" x1="7924.13" y1="-1117" x2="7935.9" y2="-1103.4" gradientTransform="matrix(1, 0.05, -0.05, 1, -7929.73, 840.8)"
      gradientUnits="userSpaceOnUse">
      <stop offset="0" stop-color="#ffdbb3" />
      <stop offset="1" stop-color="#ffcc8c" />
    </linearGradient>
    <linearGradient id="未命名的渐变_98-2" x1="8017.67" y1="-1113.53" x2="8036.17" y2="-1113.53" xlink:href="#未命名的渐变_98" />
    <linearGradient id="未命名的渐变_98-3" x1="9590.14" y1="-1179.71" x2="9666.93" y2="-1130.8" gradientTransform="matrix(0.84, 0.04, -0.04, 1, -8114.93, 832.8)"
      xlink:href="#未命名的渐变_98" />
    <linearGradient id="未命名的渐变_4" data-name="未命名的渐变 4" x1="74.41" y1="25.4" x2="86.02" y2="44.33" gradientUnits="userSpaceOnUse">
      <stop offset="0" stop-color="#1a1a1a" />
      <stop offset="1" />
    </linearGradient>
    <linearGradient id="未命名的渐变_4-2" x1="89.98" y1="-6.17" x2="108.71" y2="34.34" xlink:href="#未命名的渐变_4" />
    <linearGradient id="未命名的渐变_4-3" x1="77.15" y1="0.53" x2="94.79" y2="29.29" xlink:href="#未命名的渐变_4" />
    <linearGradient id="未命名的渐变_4-4" x1="104.54" y1="8.23" x2="116.15" y2="33.35" xlink:href="#未命名的渐变_4" />
    <linearGradient id="未命名的渐变_4-5" x1="67.93" y1="29.34" x2="80.8" y2="58.03" xlink:href="#未命名的渐变_4" />
    <linearGradient id="未命名的渐变_4-6" x1="66.33" y1="35.81" x2="87.23" y2="65.99" xlink:href="#未命名的渐变_4" />
    <linearGradient id="未命名的渐变_4-7" x1="96.21" y1="9.5" x2="107.32" y2="33.54" xlink:href="#未命名的渐变_4" />
    <linearGradient id="未命名的渐变_4-8" x1="40.47" y1="38.06" x2="66.47" y2="58.46" xlink:href="#未命名的渐变_4" />
    <linearGradient id="未命名的渐变_4-9" x1="53.64" y1="36.14" x2="68.11" y2="52.21" xlink:href="#未命名的渐变_4" />
    <linearGradient id="未命名的渐变_4-10" x1="38.16" y1="42.92" x2="62.41" y2="61.59" xlink:href="#未命名的渐变_4" />
    <linearGradient id="未命名的渐变_4-11" x1="30.31" y1="24.56" x2="57.68" y2="46.04" xlink:href="#未命名的渐变_4" />
    <linearGradient id="未命名的渐变_4-12" x1="34.89" y1="29.42" x2="54.35" y2="50.61" xlink:href="#未命名的渐变_4" />
    <linearGradient id="未命名的渐变_4-13" x1="94.31" y1="33.76" x2="129.18" y2="19.67" xlink:href="#未命名的渐变_4" />
    <linearGradient id="未命名的渐变_4-14" x1="91.55" y1="-9.51" x2="126.04" y2="71.1" xlink:href="#未命名的渐变_4" />
    <linearGradient id="未命名的渐变_4-15" x1="43.28" y1="28.01" x2="139.62" y2="26.53" xlink:href="#未命名的渐变_4" />
    <linearGradient id="未命名的渐变_4-16" x1="57.83" y1="35.29" x2="143.09" y2="25.78" xlink:href="#未命名的渐变_4" />
    <linearGradient id="未命名的渐变_4-17" x1="113.12" y1="47.4" x2="138.86" y2="39.68" xlink:href="#未命名的渐变_4" />
    <linearGradient id="未命名的渐变_4-18" x1="115.49" y1="61.85" x2="132.41" y2="48.23" xlink:href="#未命名的渐变_4" />
    <linearGradient id="未命名的渐变_4-19" x1="63.44" y1="13.71" x2="84.86" y2="12.82" xlink:href="#未命名的渐变_4" />
    <linearGradient id="未命名的渐变_4-20" x1="51.39" y1="27.65" x2="77.44" y2="26.58" xlink:href="#未命名的渐变_4" />
    <linearGradient id="未命名的渐变_4-21" x1="63.09" y1="29.93" x2="80.47" y2="29.21" xlink:href="#未命名的渐变_4" />
    <linearGradient id="未命名的渐变_4-22" x1="71.87" y1="18.76" x2="121.83" y2="16.7" xlink:href="#未命名的渐变_4" />
    <linearGradient id="未命名的渐变_4-23" x1="66.7" y1="20.39" x2="126.8" y2="17.92" xlink:href="#未命名的渐变_4" />
    <linearGradient id="未命名的渐变_4-24" x1="58.27" y1="31.25" x2="98.65" y2="29.59" xlink:href="#未命名的渐变_4" />
    <linearGradient id="未命名的渐变_4-25" x1="50.53" y1="32.31" x2="91.66" y2="30.61" xlink:href="#未命名的渐变_4" />
    <linearGradient id="未命名的渐变_4-26" x1="45.12" y1="30.16" x2="74.91" y2="28.94" xlink:href="#未命名的渐变_4" />
    <linearGradient id="未命名的渐变_4-27" x1="40.22" y1="29.13" x2="77.35" y2="27.59" xlink:href="#未命名的渐变_4" />
    <linearGradient id="未命名的渐变_4-28" x1="43.01" y1="23.88" x2="69.74" y2="22.78" xlink:href="#未命名的渐变_4" />
    <linearGradient id="未命名的渐变_4-29" x1="69.43" y1="24.07" x2="123.69" y2="21.83" xlink:href="#未命名的渐变_4" />
    <linearGradient id="未命名的渐变_4-30" x1="57.52" y1="28.41" x2="130.16" y2="25.41" xlink:href="#未命名的渐变_4" />
    <linearGradient id="未命名的渐变_4-31" x1="47.61" y1="30.87" x2="97.98" y2="28.8" xlink:href="#未命名的渐变_4" />
    <linearGradient id="未命名的渐变_4-32" x1="29.67" y1="33.31" x2="66.3" y2="31.8" xlink:href="#未命名的渐变_4" />
    <linearGradient id="未命名的渐变_4-33" x1="39.83" y1="16.52" x2="65.86" y2="15.45" xlink:href="#未命名的渐变_4" />
    <linearGradient id="未命名的渐变_4-34" x1="50.31" y1="13.83" x2="83.82" y2="12.45" xlink:href="#未命名的渐变_4" />
    <linearGradient id="未命名的渐变_4-35" x1="65.21" y1="12.26" x2="100.39" y2="10.81" xlink:href="#未命名的渐变_4" />
    <linearGradient id="未命名的渐变_4-36" x1="81.76" y1="10.62" x2="109.29" y2="9.49" xlink:href="#未命名的渐变_4" />
    <linearGradient id="未命名的渐变_4-37" x1="132.85" y1="82.29" x2="102.96" y2="70.57" xlink:href="#未命名的渐变_4" />
    <linearGradient id="未命名的渐变_4-38" x1="131.97" y1="84.24" x2="107.07" y2="74.47" xlink:href="#未命名的渐变_4" />
    <linearGradient id="未命名的渐变_4-39" x1="128.24" y1="80.49" x2="104.31" y2="71.11" xlink:href="#未命名的渐变_4" />
    <linearGradient id="未命名的渐变_4-40" x1="129.93" y1="80.93" x2="99.64" y2="69.05" xlink:href="#未命名的渐变_4" />
    <linearGradient id="未命名的渐变_4-41" x1="132.75" y1="81.6" x2="99.78" y2="68.67" xlink:href="#未命名的渐变_4" />
    <linearGradient id="未命名的渐变_4-42" x1="47.23" y1="78.78" x2="77.53" y2="68.16" xlink:href="#未命名的渐变_4" />
    <linearGradient id="未命名的渐变_4-43" x1="47.74" y1="79.92" x2="72.99" y2="71.08" xlink:href="#未命名的渐变_4" />
    <linearGradient id="未命名的渐变_4-44" x1="51.91" y1="77.15" x2="76.16" y2="68.65" xlink:href="#未命名的渐变_4" />
    <linearGradient id="未命名的渐变_4-45" x1="49.35" y1="78.37" x2="79.18" y2="67.92" xlink:href="#未命名的渐变_4" />
    <linearGradient id="未命名的渐变_4-46" x1="47.36" y1="78.08" x2="83.1" y2="65.56" xlink:href="#未命名的渐变_4" />
  </defs>
  <title>itsMe</title>
  <g id="Layer_2" data-name="Layer 2">
    <g id="page4">
      <g id="itsMe">
        <g id="body">
          <g id="Body_BG" data-name="Body BG">
            <rect x="81.32" y="134.11" width="13.51" height="25.21" style="fill: #ffcc8c" />
            <path d="M63.11,150.26H113a4.82,4.82,0,0,1,4.82,4.82v68.32a2.45,2.45,0,0,1-2.45,2.45H60.74a2.45,2.45,0,0,1-2.45-2.45V155.07A4.82,4.82,0,0,1,63.11,150.26Z"
              style="fill: #ffcc8c" />
            <g>
              <rect x="67" y="222.45" width="10.89" height="40.55" style="fill: #ffcc8c" />
              <rect x="98.26" y="222.45" width="10.89" height="40.55" style="fill: #ffcc8c" />
              <rect x="67" y="258.61" width="10.89" height="40.55" style="fill: #ffcc8c" />
              <rect x="98.26" y="258.61" width="10.89" height="40.55" style="fill: #ffcc8c" />
            </g>
            <g>
              <g>
                <line x1="77.21" y1="170.8" x2="70.26" y2="177.75" style="fill: none;stroke: #c69c6d;stroke-miterlimit: 10;stroke-width: 1.93254076023726px"
                />
                <line x1="70.26" y1="170.8" x2="77.21" y2="177.75" style="fill: none;stroke: #c69c6d;stroke-miterlimit: 10;stroke-width: 1.93254076023726px"
                />
              </g>
              <g>
                <line x1="105.89" y1="170.8" x2="98.94" y2="177.75" style="fill: none;stroke: #c69c6d;stroke-miterlimit: 10;stroke-width: 1.93254076023726px"
                />
                <line x1="98.94" y1="170.8" x2="105.89" y2="177.75" style="fill: none;stroke: #c69c6d;stroke-miterlimit: 10;stroke-width: 1.93254076023726px"
                />
              </g>
            </g>
            <polygon points="120.66 214.55 55.32 214.55 55.32 231.19 64.79 231.19 64.79 260.94 79.92 260.94 79.92 231.19 96.06 231.19 96.06 260.94 111.18 260.94 111.18 231.19 120.66 231.19 120.66 214.55"
              style="fill: #034475" />
            <g>
              <line x1="55.32" y1="218.55" x2="59.68" y2="218.55" style="fill: none;stroke: #262626;stroke-miterlimit: 10;stroke-width: 1.8385896739476px"
              />
              <line x1="62.12" y1="218.55" x2="115.07" y2="218.55" style="fill: none;stroke: #262626;stroke-miterlimit: 10;stroke-width: 1.8385896739476px;stroke-dasharray: 8.40271282196045,2.4323642253875732"
              />
              <line x1="116.29" y1="218.55" x2="120.66" y2="218.55" style="fill: none;stroke: #262626;stroke-miterlimit: 10;stroke-width: 1.8385896739476px"
              />
            </g>
            <path d="M102.05,150.26l-14,6.61-14-6.61H61.63a6.29,6.29,0,0,0-6.3,6.31l.17,58.49h65.16V156.55a6.29,6.29,0,0,0-6.3-6.29Z"
              style="fill: url(#未命名的渐变_9)" />
            <polygon points="80.75 159.97 74.1 150.26 88.08 156.87 80.75 159.97" style="fill: #fff" />
            <polygon points="95.41 159.97 102.05 150.26 88.08 156.87 95.41 159.97" style="fill: #fff" />
            <path d="M98.86,170.93h13.7a0,0,0,0,1,0,0v7.74a6.76,6.76,0,0,1-6.76,6.76h-.19a6.76,6.76,0,0,1-6.76-6.76v-7.74A0,0,0,0,1,98.86,170.93Z"
              style="fill: #8fdaff" />
            <path d="M82.85,296.2c0,5.62-20.81,5.62-20.81,0a10.41,10.41,0,0,1,20.81,0Z" style="fill: #212121" />
            <path d="M114.11,296.2c0,5.62-20.81,5.62-20.81,0a10.41,10.41,0,0,1,20.81,0Z" style="fill: #212121" />
            <path d="M82.85,298.81c0,5.62-20.81,5.62-20.81,0v-3.5c0,5.62,20.81,5.62,20.81,0Z" style="fill: #fff" />
            <path d="M114.11,298.81c0,5.62-20.81,5.62-20.81,0v-3.5c0,5.62,20.81,5.62,20.81,0Z" style="fill: #fff" />
          </g>
          <g id="right_arm" data-name="+Right Arm">
            <g class="lower_elbow">
              <circle class="hands" cx="8.12" cy="163.96" r="8.11" style="fill: #ffcc8c" />
              <path class="lower_elbow_main" d="M40.63,183.25h0a5.08,5.08,0,0,1-7,1.78L5.21,168.14l5.19-8.73,28.45,16.88A5.08,5.08,0,0,1,40.63,183.25Z"
                style="fill: #ffcc8c" />
              <line x1="9.56" y1="157.25" x2="13.27" y2="152.19" style="fill: none;stroke: #e0a96c;stroke-linecap: round;stroke-miterlimit: 10;stroke-width: 5.63117215358563px"
              />
              <line x1="11.09" y1="159.85" x2="3.27" y2="150.38" style="fill: none;stroke: #ffcc8c;stroke-linecap: round;stroke-miterlimit: 10;stroke-width: 5.63117215358563px"
              />
            </g>
            <g class="upper_elbow">
              <path d="M32.08,184.36h0a5.08,5.08,0,0,1,0-7.19l23.39-23.39L62.65,161l-23.39,23.4A5.08,5.08,0,0,1,32.08,184.36Z" style="fill: #ffcc8c"
              />
              <path d="M54.18,152.49l-22,22,9.76,9.76,22-22a6.9,6.9,0,1,0-9.76-9.76Z" style="fill: url(#未命名的渐变_9-2)" />
            </g>
          </g>
          <g id="left_arm" data-name="+Left Arm">
            <g class="lower_elbow">
             <g class="hand">
              <circle data-name="Hands" cx="170.37" cy="149.83" r="8.11" style="fill: #ffcc8c" />
              <line  x1="173.47" y1="134.69" x2="165.7" y2="147" style="fill: none;stroke: #ffcc8c;stroke-linecap: round;stroke-miterlimit: 10;stroke-width: 5.63117215358563px"
              />
              <line x1="159.4" y1="143.6" x2="165.7" y2="148.9" style="fill: none;stroke: #ffcc8c;stroke-linecap: round;stroke-miterlimit: 10;stroke-width: 5.63117215358563px" />
				</g>
              <path class="lower_elbow_main" data-name="Arm" d="M140.72,173.28h0a5.07,5.07,0,0,1,.83-7.13l25.95-20.52,6.3,8-26,20.52A5.07,5.07,0,0,1,140.72,173.28Z"
                style="fill: #ffcc8c" />
            </g>
            <g class="upper_elbow" data-name="Sleeve">
              <path d="M150,171.74h0a5.07,5.07,0,0,1-6.59,2.85l-30.77-12.15,3.73-9.45,30.77,12.16A5.08,5.08,0,0,1,150,171.74Z" style="fill: #ffcc8c"
              />
              <path d="M112,164.13l28.94,11.44L146,162.73,117,151.3A6.9,6.9,0,0,0,112,164.13Z" style="fill: url(#未命名的渐变_9-3)" />
            </g>
          </g>
        </g>
        <g id="head">
          <g id="face_background" data-name="face background">
            <g>
              <path d="M45.33,71.54a7.79,7.79,0,0,1,2.55,10c-1.5,3-3.26,5.94-2.88,9.23.24,2.12,1.4,4,2.1,6s.83,4.53-.69,6c-1.35,1.34-3.49,1.38-5.38,1.19-2.89-.3-5.89-1-8-3-2.83-2.64-3.49-6.87-3.37-10.74a36.73,36.73,0,0,1,2.64-12.5,14,14,0,0,1,2.79-4.68,8.87,8.87,0,0,1,8.17-2.42A6.48,6.48,0,0,1,45.33,71.54Z"
                style="fill: url(#未命名的渐变_98)" />
              <g>
                <path d="M42.32,82.91c-2.48.21-4,4.52-4.2,6.63-.29,2.77,1.27,5.37,4.19,5.56.76,0,.76-1.14,0-1.19-2.84-.18-3.39-3.25-2.75-5.5.27-.92,1.55-4.21,2.76-4.31.75-.07.76-1.25,0-1.19Z"
                  style="fill: #c7b299" />
                <path d="M42.09,88.86a5.74,5.74,0,0,1,2,1.68c1,1.33.37,2.37-.59,3.46-.5.57.33,1.41.84.84,1-1.11,1.85-2.35,1.32-3.89a6.1,6.1,0,0,0-3-3.11c-.67-.36-1.27.66-.59,1Z"
                  style="fill: #c7b299" />
              </g>
            </g>
            <g>
              <path d="M134.46,75A7.79,7.79,0,0,0,131,84.73c1.22,3.15,2.71,6.2,2,9.45-.43,2.09-1.76,3.87-2.64,5.82s-1.23,4.43.14,6.07c1.23,1.45,3.36,1.69,5.26,1.66,2.9,0,6-.5,8.25-2.28,3.05-2.37,4.09-6.53,4.32-10.39a36.58,36.58,0,0,0-1.5-12.69,14.05,14.05,0,0,0-2.36-4.91,8.88,8.88,0,0,0-7.92-3.15A6.56,6.56,0,0,0,134.46,75Z"
                style="fill: url(#未命名的渐变_98-2)" />
              <g>
                <path d="M136.15,88.33c1.4.24,2.25,3.5,2.47,4.61.47,2.37-.45,5.25-3.3,5.18a.59.59,0,0,0,0,1.18c2.89.08,4.65-2.4,4.62-5.13,0-2-1.16-6.58-3.48-7-.74-.14-1.06,1-.31,1.14Z"
                  style="fill: #c7b299" />
                <path d="M135.5,92.07a6.06,6.06,0,0,0-3.16,2.78c-.69,1.43,0,2.77.89,3.93.45.61,1.48,0,1-.6-.86-1.17-1.43-2.31-.35-3.57a5.88,5.88,0,0,1,2.19-1.52c.7-.3.1-1.32-.6-1Z"
                  style="fill: #c7b299" />
              </g>
            </g>
            <path d="M47.9,49.72c.6-3.41,7.86-26.71,44.5-25,27,1.23,41.75,25.33,42,28.77.36,4-.35,52,.1,57.36,1.21,14.5-27.87,34.81-46.2,34-18.78-.86-43.68-21.85-45.48-37.94-.17-1.5.07-3.9.47-10.46C44.31,80.35,47.42,52.42,47.9,49.72Z"
              style="fill: url(#未命名的渐变_98-3)" />
            <g>
              <path d="M99.62,18.72a6.93,6.93,0,0,1,1.78,4.05,12.26,12.26,0,0,1-.36,4.56,21,21,0,0,1-3.9,7.54,36.21,36.21,0,0,1-2.53,2.86,31.69,31.69,0,0,1-2.74,2.46A36.48,36.48,0,0,1,72.37,48a34,34,0,0,1-7.19-.12,31.92,31.92,0,0,1-3.73-.68,23.91,23.91,0,0,1-3.91-1.26,33.54,33.54,0,0,1,4.68-6.28A49.61,49.61,0,0,1,67.28,35a59.41,59.41,0,0,1,10.46-6.68c1.75-.9,3.55-1.69,5.35-2.45.91-.37,1.82-.73,2.76-1.07s1.91-.68,2.79-.93c1.8-.56,3.57-1,5.37-1.6A11.23,11.23,0,0,0,99.62,18.72Z"
                style="fill: url(#未命名的渐变_4)" />
              <path d="M138.6,3.78a5.73,5.73,0,0,1,1.36,3,8.32,8.32,0,0,1-.3,3.6,14.82,14.82,0,0,1-3.73,6.14,18.59,18.59,0,0,1-2.79,2.34,27.4,27.4,0,0,1-2.9,1.79,39.21,39.21,0,0,1-5.94,2.53c-2,.68-3.88,1.2-5.73,1.66s-3.73.88-5.62,1.21a92.59,92.59,0,0,1-11.37,1.37A90,90,0,0,1,78.72,26a73.44,73.44,0,0,1-11.21-3.09c-1.84-.69-3.67-1.41-5.47-2.29a40.68,40.68,0,0,1-5.33-3,55.61,55.61,0,0,1,5.73-2c1.88-.56,3.75-1,5.6-1.5,3.7-.88,7.35-1.59,11-2.18A215.07,215.07,0,0,1,100.53,9.7c3.58-.2,7.15-.34,10.75-.38,1.8,0,3.61,0,5.42,0l5.27.15c1.68,0,3.3.09,4.87.06.78,0,1.6,0,2.32-.08a13,13,0,0,0,2.12-.23,13.38,13.38,0,0,0,4.23-1.46A6.2,6.2,0,0,0,138.6,3.78Z"
                style="fill: url(#未命名的渐变_4-2)" />
              <path d="M110.21,5.38c1.09,2.89.4,6.3-1,9.06a22.61,22.61,0,0,1-5.63,7.07,28.09,28.09,0,0,1-3.48,2.57c-.61.38-1.19.72-1.81,1.05a18.9,18.9,0,0,1-1.85.94,34.05,34.05,0,0,1-7.82,2.6,34.48,34.48,0,0,1-16.25-.47c-5.25-1.53-10.3-4.23-13.95-9.09,1.43-.67,2.73-1.11,4-1.59s2.48-.88,3.65-1.26c2.36-.79,4.57-1.45,6.71-2.05,4.28-1.21,8.26-2.12,12.25-2.94,2-.41,4-.77,6-1.14,1-.17,2-.37,3.07-.51l3-.46c2-.32,4-.58,6.13-1.05A20.16,20.16,0,0,0,110.21,5.38Z"
                style="fill: url(#未命名的渐变_4-3)" />
              <path d="M139.52,10.21a21.41,21.41,0,0,1-.66,2.32c-.29.73-.59,1.46-.92,2.16s-.73,1.36-1.11,2S136,18,135.57,18.65a33.1,33.1,0,0,1-6.27,6.51,42.15,42.15,0,0,1-15.74,7.65A47.42,47.42,0,0,1,96.7,34.06a45.35,45.35,0,0,1-8.36-1.67,43.14,43.14,0,0,1-4.16-1.48A30.27,30.27,0,0,1,80,28.82,30,30,0,0,1,83.7,26c1.25-.85,2.49-1.57,3.74-2.28a69.5,69.5,0,0,1,7.4-3.51,108.11,108.11,0,0,1,14.32-4.59c4.66-1.18,9.25-2.16,14.1-3,2.42-.44,4.93-.82,7.58-1.23,1.33-.2,2.68-.42,4.12-.6.71-.12,1.45-.2,2.2-.3S138.68,10.26,139.52,10.21Z"
                style="fill: url(#未命名的渐变_4-4)" />
              <path d="M115.31,29.87a12.23,12.23,0,0,1-3.42,5.75,29.52,29.52,0,0,1-5.24,4.1L104,41.33c-.8.47-1.49.9-2.23,1.38-1.45.93-2.86,1.93-4.29,2.94C91.76,49.7,86,54.41,78.73,58.48a55.06,55.06,0,0,1-12,5.13,36.75,36.75,0,0,1-13.9,1.33A30.29,30.29,0,0,1,34.8,56.5a25.83,25.83,0,0,1-4-5l6.13.51c2,.13,3.84.22,5.64.19A40.32,40.32,0,0,0,52.38,51a48,48,0,0,0,8.69-3.24C64,46.41,66.89,44.78,70,43s6.38-3.66,9.93-5.45a69.43,69.43,0,0,1,11.51-4.72,42.11,42.11,0,0,1,6.42-1.42,31.41,31.41,0,0,1,3.3-.31H104c1,0,1.87,0,2.78,0s1.83,0,2.76-.08A19.05,19.05,0,0,0,115.31,29.87Z"
                style="fill: url(#未命名的渐变_4-5)" />
              <path d="M115.68,35.2c-1.28,3.85-4.25,7-7.53,9.45a44,44,0,0,1-10.51,5.47c-7.12,2.65-13.88,4-19.41,5.75S66.8,60.26,60,62.69a74.09,74.09,0,0,1-10.74,3c-1,.15-1.91.33-2.87.45s-1.94.22-2.92.26-2,0-3,0a29.84,29.84,0,0,1-3-.33c.66-.79,1.33-1.48,2-2.17s1.29-1.4,1.93-2C42.74,60.55,44,59.27,45.24,58c2.49-2.55,5-5,7.74-7.39A67.77,67.77,0,0,1,62,44a49.28,49.28,0,0,1,10.93-5,54.4,54.4,0,0,1,11.56-2.19,104.7,104.7,0,0,1,10.64-.32c3.4,0,6.68.18,10,.11A44.66,44.66,0,0,0,115.68,35.2Z"
                style="fill: url(#未命名的渐变_4-6)" />
              <path d="M125.56,7.07a2.12,2.12,0,0,0-1.53,1,10.22,10.22,0,0,0-.75,1.43,20.56,20.56,0,0,1-1.8,3.3,48.41,48.41,0,0,1-4.48,6,56.57,56.57,0,0,1-10.53,9.3A55.45,55.45,0,0,1,94,34.53a48.84,48.84,0,0,1-7.19,2c-1.28.23-2.57.46-3.94.59a27.43,27.43,0,0,1-4.31.15,32.28,32.28,0,0,1,3-7.75,41.29,41.29,0,0,1,4.21-6.34A50.05,50.05,0,0,1,109.43,7.05a42.75,42.75,0,0,1,7.43-1.62c1.34-.14,2.5-.26,4.24-.36a7.58,7.58,0,0,1,2.59.34A2.8,2.8,0,0,1,125.56,7.07Z"
                style="fill: url(#未命名的渐变_4-7)" />
              <path d="M76.3,20.9c-1.29,1.39-2.55,2.53-3.72,3.73-.59.58-1.15,1.16-1.69,1.75-.27.29-.55.56-.82.83l-.76.88A67.46,67.46,0,0,0,64,34.76a93.86,93.86,0,0,0-7.75,13.82c-2.34,4.93-4.58,10.29-7.3,15.91q-2,4.22-4.55,8.56c-.88,1.43-1.77,2.88-2.8,4.3a33.38,33.38,0,0,1-3.4,4.19,43.35,43.35,0,0,1-1.45-5.17c-.39-1.7-.67-3.37-.91-5.06a58.8,58.8,0,0,1-.49-10.1A52,52,0,0,1,40.18,41a42.49,42.49,0,0,1,6-9.35,35.25,35.25,0,0,1,8.68-7.4C61.45,20.29,69.24,18.85,76.3,20.9Z"
                style="fill: url(#未命名的渐变_4-8)" />
              <path d="M67.47,27.42A8.1,8.1,0,0,1,72.76,32,13.59,13.59,0,0,1,74,39a18.47,18.47,0,0,1-1.58,6.18,21.46,21.46,0,0,1-2.91,4.77,20.47,20.47,0,0,1-8.74,6.38,18.81,18.81,0,0,1-5.64,1.17,18.11,18.11,0,0,1-3.1-.11,15.21,15.21,0,0,1-3.34-.77,31.89,31.89,0,0,1,.55-3.32c.21-1,.45-1.92.69-2.81a37.44,37.44,0,0,1,1.61-4.68,28,28,0,0,1,4.14-7A24.36,24.36,0,0,1,58.25,36,20,20,0,0,1,61,34a31.8,31.8,0,0,0,3.11-2.13A12,12,0,0,0,67.47,27.42Z"
                style="fill: url(#未命名的渐变_4-9)" />
              <path d="M55.3,29a8,8,0,0,1,3,2.77,15.44,15.44,0,0,1,1.76,3.58,30.16,30.16,0,0,1,1.5,6.75,31.11,31.11,0,0,1-7.75,23.57A26.94,26.94,0,0,1,48.79,70,23.16,23.16,0,0,1,42,73.2a29.45,29.45,0,0,1-.86-3.77c-.21-1.19-.31-2.31-.43-3.42a43.11,43.11,0,0,1-.07-6.2,42.34,42.34,0,0,1,2.11-10.87,43.51,43.51,0,0,1,4.79-10,34.94,34.94,0,0,1,3.65-4.76A23.75,23.75,0,0,0,55.3,29Z"
                style="fill: url(#未命名的渐变_4-10)" />
              <path d="M44.57,12.47a12.1,12.1,0,0,1,6,4.56,20.94,20.94,0,0,1,3.08,6.33,27.12,27.12,0,0,1,1.11,6.27,28.33,28.33,0,0,1-.32,6.18,27.34,27.34,0,0,1-4.61,11.44A24.93,24.93,0,0,1,45.4,52a22.66,22.66,0,0,1-2.83,2,17.34,17.34,0,0,1-3.38,1.61,38,38,0,0,1-2-6.68,43.87,43.87,0,0,1-.81-5.77A42.36,42.36,0,0,1,36.86,33,46.53,46.53,0,0,1,38,28.09a37.71,37.71,0,0,1,1.72-4.84c.66-1.57,1.46-3.1,2.29-4.77A47.7,47.7,0,0,0,44.57,12.47Z"
                style="fill: url(#未命名的渐变_4-11)" />
              <path d="M54.21,24.72a32,32,0,0,1-.62,3.36c-.22,1-.42,2-.64,2.83-.41,1.75-.8,3.28-1.17,4.66a41.59,41.59,0,0,1-2.47,7,40,40,0,0,1-4.07,6.77,23.36,23.36,0,0,1-1.47,1.91c-.5.67-1.1,1.34-1.72,2s-1.28,1.43-2,2.16a25.23,25.23,0,0,1-2.57,2.3,18.36,18.36,0,0,1-4.08-5.26,26.28,26.28,0,0,1-1.17-2.8,24.31,24.31,0,0,1-.7-2.89,20.23,20.23,0,0,1,1.73-11.75,19.82,19.82,0,0,1,8.36-9,16.88,16.88,0,0,1,6-1.95A15.29,15.29,0,0,1,54.21,24.72Z"
                style="fill: url(#未命名的渐变_4-12)" />
              <path d="M96.9,10.54a25.32,25.32,0,0,1,4.36-.88,27.07,27.07,0,0,1,3.87-.16,24.11,24.11,0,0,1,6.74,1.15,23.11,23.11,0,0,1,15.94,24.77,23.87,23.87,0,0,1-.81,3.87,20.88,20.88,0,0,1-1.74,4.14c-.87-.07-1.55-.21-2.32-.3s-1.39-.23-2-.36c-1.33-.24-2.47-.54-3.61-.82a38.8,38.8,0,0,1-5.84-2A23.56,23.56,0,0,1,103.27,34a24.54,24.54,0,0,1-5-9A33.85,33.85,0,0,1,97,18.71c-.13-1.18-.22-2.41-.24-3.75A31.54,31.54,0,0,1,96.9,10.54Z"
                style="fill: url(#未命名的渐变_4-13)" />
              <path d="M76.94,3.55a37.36,37.36,0,0,1,6.17.06,58,58,0,0,1,6,1c1.93.53,3.91,1,5.79,1.72s3.76,1.44,5.55,2.32A70.72,70.72,0,0,1,119.75,22.5a72.9,72.9,0,0,1,13.82,19.18c.85,1.8,1.65,3.62,2.38,5.45s1.28,3.79,1.85,5.69.91,3.92,1.23,5.91a43.08,43.08,0,0,1,.4,6.14,53.52,53.52,0,0,1-4.75-3.76c-1.54-1.24-3-2.51-4.35-3.77s-2.82-2.48-4.13-3.74-2.7-2.47-4-3.73C117,44.91,112.07,40,107.15,35s-9.78-9.87-14.73-15c-1.23-1.29-2.51-2.52-3.74-3.87s-2.54-2.6-3.81-4S82.26,9.53,81,8,78.27,5.22,76.94,3.55Z"
                style="fill: url(#未命名的渐变_4-14)" />
              <path d="M52.3,16.21a.36.36,0,0,1-.47-.1.83.83,0,0,1-.1-.56,2,2,0,0,1,.41-.94,1.59,1.59,0,0,1,.44-.41A4.77,4.77,0,0,0,53,14l.67-.42A24.41,24.41,0,0,1,56.5,12c.49-.22,1-.45,1.47-.65l1.5-.53c1-.38,2-.62,3.08-.9a43.18,43.18,0,0,1,12.7-1,67.71,67.71,0,0,1,23.67,6.34,93.65,93.65,0,0,1,20,12.41,87.65,87.65,0,0,1,8.69,8c1.35,1.46,2.69,3,4,4.55a46.79,46.79,0,0,1,3.63,5,48.17,48.17,0,0,1-6.16-.8c-2-.35-3.94-.8-5.86-1.27-3.82-1-7.52-2.1-11.1-3.36-7.18-2.5-14-5.41-20.58-8.45s-12.88-6.09-19.29-8.89c-3.22-1.38-6.47-2.71-9.92-3.9-.86-.31-1.74-.61-2.63-.87l-1.35-.44L57,17c-.93-.28-1.88-.53-2.85-.78l-.74-.2c-.13,0-.28-.06-.26-.12a.28.28,0,0,0-.19-.08,1.19,1.19,0,0,0-.55.1,1.3,1.3,0,0,0-.21.12C52.1,16,52.17,16.15,52.3,16.21Z"
                style="fill: url(#未命名的渐变_4-15)" />
              <path d="M66.05,20.48a8.44,8.44,0,0,1-3.74-6.29,8.19,8.19,0,0,1,.85-4.53,7.68,7.68,0,0,1,1.66-2.21A13.63,13.63,0,0,1,66,6.59l1-.64a17.11,17.11,0,0,1,8.44-2.06A30,30,0,0,1,83,4.82,63.09,63.09,0,0,1,95.62,9.55a101.52,101.52,0,0,1,11.19,6.3,96.46,96.46,0,0,1,19.45,16.68,80.62,80.62,0,0,1,7.79,10.34c.57.93,1.13,1.86,1.67,2.81l.84,1.5c.29.52.55,1.09.8,1.65a11.25,11.25,0,0,1,.94,3.74,5.23,5.23,0,0,1-.27,2A3.42,3.42,0,0,1,137,56a3.32,3.32,0,0,0-1.21-2.54A11.42,11.42,0,0,0,133.53,52l-1.27-.63-1.36-.66-2.81-1.43c-1.84-1-3.67-1.95-5.45-2.95s-3.56-2-5.3-3c-7-4.05-13.65-8.26-20.25-12.58-3.3-2.16-6.58-4.34-9.85-6.58s-6.38-4.45-9.35-6.34a46,46,0,0,0-4.27-2.42,13.14,13.14,0,0,0-3.74-1.27l-.45,0c-.23,0-.14-.08-.23-.15a.68.68,0,0,0-.54-.07A2.71,2.71,0,0,0,67.18,15,8.07,8.07,0,0,0,66.05,20.48Z"
                style="fill: url(#未命名的渐变_4-16)" />
              <path d="M110,12a29,29,0,0,1,10.26,2.35,25.4,25.4,0,0,1,9,6.48,37.09,37.09,0,0,1,5.83,9,58.49,58.49,0,0,1,3.32,9.09,63.52,63.52,0,0,1,2.28,18.6c-.39,3.23.27,6.49,0,9.91a18.43,18.43,0,0,1-.95,5.25,6.4,6.4,0,0,1-1.51,2.42c-.68.65-1.33.87-1.69,1.64a2.58,2.58,0,0,1,0-1.3c.09-.43.2-.82.24-1.17a4.8,4.8,0,0,0-.18-1.93,22.69,22.69,0,0,0-1.62-3.84,42.23,42.23,0,0,0-4.79-7.77,70.14,70.14,0,0,1-8.52-16.4c-1-2.78-1.91-5.57-2.7-8.2l-2.14-7.45a57.3,57.3,0,0,0-2.85-7.45A84.3,84.3,0,0,1,110,12Z"
                style="fill: url(#未命名的渐变_4-17)" />
              <path d="M106.37,32.05a12.66,12.66,0,0,1,2.31-.08,13.38,13.38,0,0,1,2.26.4,12.18,12.18,0,0,1,2.16.73,18.16,18.16,0,0,1,2,.95c.64.35,1.26.73,1.89,1.12s1.17.79,1.73,1.21A35.41,35.41,0,0,1,121.9,39a56.43,56.43,0,0,1,9.27,11.48,66.66,66.66,0,0,1,6.19,12.73c.42,1.13.8,2.31,1.14,3.52s.67,2.44,1,3.71a42.29,42.29,0,0,1,1.11,8.34,25.05,25.05,0,0,1-4.22-1.26c-.68-.24-1.31-.53-2-.81s-1.22-.61-1.84-.92c-1.18-.66-2.35-1.33-3.45-2.07S127,72.18,126,71.35a47.19,47.19,0,0,1-9.91-11.5,54.32,54.32,0,0,1-5.92-13.34c-.34-1.1-.64-2.32-.91-3.42-.14-.57-.28-1.15-.39-1.75l-.39-1.72A44.49,44.49,0,0,0,106.37,32.05Z"
                style="fill: url(#未命名的渐变_4-18)" />
              <path d="M81.67,9a1.43,1.43,0,0,0-.68.56,2,2,0,0,0-.29.64,8.45,8.45,0,0,0-.2,1.21,5.4,5.4,0,0,1-.39,2.15,10.26,10.26,0,0,1-6.78,5.87,14,14,0,0,1-6.12.19,11.45,11.45,0,0,1,.55-6.21,10,10,0,0,1,2.83-4A10.13,10.13,0,0,1,75,7.16a12.49,12.49,0,0,1,3.43-.42,5.09,5.09,0,0,1,2,.57,3.19,3.19,0,0,1,.86.68A1.64,1.64,0,0,1,81.67,9Z"
                style="fill: url(#未命名的渐变_4-19)" />
              <path d="M71.78,18.63c0-.1,0-.18-.1-.17a.3.3,0,0,0-.17.1c-.11.09,0,.25-.07.37a2.23,2.23,0,0,1-.08.74,9.06,9.06,0,0,0-.4,1.57c-.17,1-.26,1.83-.49,2.83a15.4,15.4,0,0,1-.5,1.55c-.21.51-.42,1-.66,1.51a20.3,20.3,0,0,1-1.66,2.77A19,19,0,0,1,63,34.48a17,17,0,0,1-7.09,2.83,16.87,16.87,0,0,1,.43-7.63,19,19,0,0,1,5-8.32,16.25,16.25,0,0,1,1.22-1.11c.43-.34.86-.68,1.39-1.05a11.61,11.61,0,0,1,3.84-1.91A6.52,6.52,0,0,1,70,17.1a4.23,4.23,0,0,1,1.44.26c.24.12.59.37.65.66a.61.61,0,0,1,0,.46A.28.28,0,0,1,71.78,18.63Z"
                style="fill: url(#未命名的渐变_4-20)" />
              <path d="M76.05,20.42a19.54,19.54,0,0,1,.82,6.21,12.92,12.92,0,0,1-.94,4.43,12.57,12.57,0,0,1-2.44,3.77,21.48,21.48,0,0,1-4.89,3.85,10,10,0,0,1-3-5.94,10.84,10.84,0,0,1,.75-5.67,11,11,0,0,1,3.47-4.51A10.56,10.56,0,0,1,76.05,20.42Z"
                style="fill: url(#未命名的渐变_4-21)" />
              <path d="M74.52,14.5a5.35,5.35,0,0,1,2.66-2.25,27.21,27.21,0,0,1,3-1.16,34.59,34.59,0,0,1,6.08-1.34,36.85,36.85,0,0,1,12.42.54,31.89,31.89,0,0,1,11.69,5c3.5,2.47,6.68,5.81,8,10.12-4.32-1.07-7.84-1.91-11.42-2.67L96.52,20.47c-3.5-.77-7-1.55-10.72-2.57-1.83-.51-3.7-1.06-5.6-1.72-1-.33-1.92-.7-2.79-1A6.85,6.85,0,0,0,74.52,14.5Z"
                style="fill: url(#未命名的渐变_4-22)" />
              <path d="M72,9.76c0,.51-1.06.34-.86-.5a1.3,1.3,0,0,1,.48-.67,3.49,3.49,0,0,1,.56-.34A16.69,16.69,0,0,1,74,7.37a19.69,19.69,0,0,1,4-1.11,29.3,29.3,0,0,1,8.2-.13,38.53,38.53,0,0,1,3.94.65c1.28.27,2.56.57,3.81,1a49.88,49.88,0,0,1,7.36,2.78,50.44,50.44,0,0,1,13,8.68,37.63,37.63,0,0,1,9.28,12.71c-2.59-.86-4.91-1.9-7.21-2.9s-4.49-2-6.68-3L96.93,20,84.14,14c-2.12-1-4.23-1.88-6.44-2.68-1.11-.4-2.25-.76-3.44-1.09-.6-.16-1.21-.31-1.84-.45l-.55-.19s-.05-.07-.09,0,0,0,0,.1S71.88,9.92,72,9.76Z"
                style="fill: url(#未命名的渐变_4-23)" />
              <path d="M96,18.39a3.5,3.5,0,0,0-2.11,1.46,17.55,17.55,0,0,0-1.32,2,50.26,50.26,0,0,1-3.34,4.4,59.67,59.67,0,0,1-7.6,7.41,59,59,0,0,1-8.77,6,38.75,38.75,0,0,1-10.62,4.14,31,31,0,0,1,5.21-10.3A43.69,43.69,0,0,1,75,25.6a44.63,44.63,0,0,1,9.25-5.84,38.88,38.88,0,0,1,5.26-2,10.47,10.47,0,0,1,3.32-.62,5.51,5.51,0,0,1,1.75.27A2.86,2.86,0,0,1,96,18.39Z"
                style="fill: url(#未命名的渐变_4-24)" />
              <path d="M88.52,16.56a3.34,3.34,0,0,0-2.33,1.37A10.92,10.92,0,0,0,84.8,20l-.14.28-.2.32-.39.65c-.26.43-.54.83-.81,1.25-.54.84-1.11,1.64-1.68,2.43a80.55,80.55,0,0,1-7.4,8.76,80,80,0,0,1-8.53,7.65,49.28,49.28,0,0,1-10.46,6.4A33.27,33.27,0,0,1,59.45,36a46.63,46.63,0,0,1,7.26-9.56,48.57,48.57,0,0,1,9.35-7.52c.87-.52,1.75-1,2.66-1.5.46-.22.91-.46,1.38-.67l1.47-.68a9.91,9.91,0,0,1,3.61-.87,5.15,5.15,0,0,1,1.9.27A2.84,2.84,0,0,1,88.52,16.56Z"
                style="fill: url(#未命名的渐变_4-25)" />
              <path d="M71.29,15.89a1.55,1.55,0,0,0-.63,1c-.1.33-.14.69-.21,1a21,21,0,0,1-.6,2.33,37.81,37.81,0,0,1-1.63,4.27,41.82,41.82,0,0,1-4.36,7.41,41.52,41.52,0,0,1-5.75,6.38,30.67,30.67,0,0,1-8,5.31,21.9,21.9,0,0,1,1.11-9.76,29.24,29.24,0,0,1,4.24-8.1,29.81,29.81,0,0,1,6.47-6.46A27.28,27.28,0,0,1,66,16.85c.76-.35,1.47-.64,2.34-1a5.49,5.49,0,0,1,1.46-.38A2,2,0,0,1,71.29,15.89Z"
                style="fill: url(#未命名的渐变_4-26)" />
              <path d="M73.42,14.16a6.22,6.22,0,0,0-4.83,1.65A14.57,14.57,0,0,0,66,19.29l-1.28,2.2c-.48.79-1,1.62-1.51,2.4Q61.66,26.25,60,28.45c-1.08,1.47-2.17,2.9-3.29,4.31s-2.22,2.8-3.37,4.19l-3.49,4.3c-1.2,1.49-2.39,3-3.85,4.75a17.42,17.42,0,0,1-1-6.41,26.4,26.4,0,0,1,1-6.32,35.21,35.21,0,0,1,5.59-11,47.35,47.35,0,0,1,3.88-4.56c.69-.72,1.39-1.38,2.14-2.08a30.29,30.29,0,0,1,2.56-2.09,15.89,15.89,0,0,1,3.22-1.81,10.49,10.49,0,0,1,3.81-.82,8.25,8.25,0,0,1,3.7.78A4.87,4.87,0,0,1,73.42,14.16Z"
                style="fill: url(#未命名的渐变_4-27)" />
              <path d="M66.85,6.89A30.9,30.9,0,0,0,65,11.59c-.48,1.46-1,2.93-1.53,4.4a83.71,83.71,0,0,1-3.73,8.17,80.33,80.33,0,0,1-4.58,7.73,49.87,49.87,0,0,1-6.4,7.87,21,21,0,0,1-1.34-10.6,29,29,0,0,1,9.41-17.95,22.56,22.56,0,0,1,4.44-3.09A9.71,9.71,0,0,1,66.85,6.89Z"
                style="fill: url(#未命名的渐变_4-28)" />
              <path d="M70.31,12.11A40.18,40.18,0,0,1,85,12a58.2,58.2,0,0,1,26.21,11.45,40.23,40.23,0,0,1,9.88,10.89,81.37,81.37,0,0,1-13.85-3.72c-4.33-1.52-8.49-3.18-12.6-5s-8.15-3.74-12.2-5.88A84.41,84.41,0,0,1,70.31,12.11Z"
                style="fill: url(#未命名的渐变_4-29)" />
              <path d="M57.62,14a22.85,22.85,0,0,1,9.92-2.63,39.67,39.67,0,0,1,10.29.94,68.68,68.68,0,0,1,9.61,2.9c1.53.56,3,1.19,4.54,1.8s3,1.33,4.46,2a109.18,109.18,0,0,1,16.86,9.88,74.8,74.8,0,0,1,14.6,13.34A134,134,0,0,1,109.35,36c-5.91-2.38-11.68-4.93-17.37-7.64l-4.26-2.06c-1.41-.72-2.84-1.39-4.24-2.12C80.69,22.76,78,21.33,75.22,20A60.89,60.89,0,0,0,57.62,14Z"
                style="fill: url(#未命名的渐变_4-30)" />
              <path d="M92.21,18.83c.06-.15,0-.28-.09-.25a1.4,1.4,0,0,0-.28,0,1.82,1.82,0,0,0-.65.2c-.27.18-.79.5-1.23.76-.89.54-1.72,1.09-2.52,1.66-1.59,1.14-3.08,2.3-4.62,3.5-3.11,2.44-6.36,4.7-9.56,6.87s-6.49,4.26-9.94,6.27c-1.73,1-3.47,2-5.33,3a58.67,58.67,0,0,1-5.94,2.84,28.7,28.7,0,0,1,5.82-11.94,40.75,40.75,0,0,1,9.59-8.81,42.73,42.73,0,0,1,11.76-5.55,24.76,24.76,0,0,1,6.83-1.07,15.92,15.92,0,0,1,3.51.38c.29.06.57.13.85.21a6.73,6.73,0,0,1,1,.33,3.22,3.22,0,0,1,.82.65,1.2,1.2,0,0,1,.29.51A.38.38,0,0,1,92.21,18.83Z"
                style="fill: url(#未命名的渐变_4-31)" />
              <path d="M64.3,13c-2.35.77-3.38,2.31-4.44,3.89-.51.79-1,1.64-1.46,2.51s-1,1.83-1.56,2.72c-2.1,3.62-4.27,7-6.45,10.46s-4.4,6.8-6.81,10.22a97.47,97.47,0,0,1-8.12,10.46,31.33,31.33,0,0,1,.65-13.82A44,44,0,0,1,50.69,16.71c.43-.37.91-.7,1.36-1s.89-.68,1.42-1a19.13,19.13,0,0,1,3.3-1.85,10.92,10.92,0,0,1,3.86-.92A5.48,5.48,0,0,1,64.3,13Z"
                style="fill: url(#未命名的渐变_4-32)" />
              <path d="M45,29.07a18.47,18.47,0,0,1-.2-8.9,23.48,23.48,0,0,1,3.09-7.58,23,23,0,0,1,5.48-6.1,17.83,17.83,0,0,1,8.17-3.63A27.17,27.17,0,0,1,60,11.36a32.72,32.72,0,0,1-3.25,6.76A33.14,33.14,0,0,1,52,24,26,26,0,0,1,45,29.07Z"
                style="fill: url(#未命名的渐变_4-33)" />
              <path d="M54.87,25.58a21.68,21.68,0,0,1,2.54-9.69,28.93,28.93,0,0,1,5.64-7.57,28.6,28.6,0,0,1,7.73-5.41A21.38,21.38,0,0,1,80.56.68,34.38,34.38,0,0,1,76,9.25,48,48,0,0,1,70.3,15.8a48.29,48.29,0,0,1-6.73,5.46A34.29,34.29,0,0,1,54.87,25.58Z"
                style="fill: url(#未命名的渐变_4-34)" />
              <path d="M66.62,22.84c1.27-1.5,1.58-2.9,2.27-4.42A29.31,29.31,0,0,1,71.43,14a33.68,33.68,0,0,1,6.92-7.27,33.24,33.24,0,0,1,8.73-4.95A24.46,24.46,0,0,1,97.55.06a36.55,36.55,0,0,1-5.9,8.49,54.79,54.79,0,0,1-6.89,6.36A55.3,55.3,0,0,1,76.9,20a48.68,48.68,0,0,1-4.52,2.1,13.94,13.94,0,0,1-2.76.88A5.36,5.36,0,0,1,66.62,22.84Z"
                style="fill: url(#未命名的渐变_4-35)" />
              <path d="M85.88,18.15a13.61,13.61,0,0,1,1.91-7.78,16.74,16.74,0,0,1,5-5.35,16.43,16.43,0,0,1,6.79-2.74,13.33,13.33,0,0,1,8,1.06,26.54,26.54,0,0,1-4.24,6.25,25.65,25.65,0,0,1-4.61,4,26.32,26.32,0,0,1-5.43,2.85A26.57,26.57,0,0,1,85.88,18.15Z"
                style="fill: url(#未命名的渐变_4-36)" />
            </g>
            <path d="M81,99.53a15,15,0,0,0,4.69,2.88,12,12,0,0,0,4.9.82,17.46,17.46,0,0,0,5-1.17c1.72-.63,3.47-1.45,5.4-2.06a17.13,17.13,0,0,1-4.29,4.2,11.89,11.89,0,0,1-6,2.09,10.15,10.15,0,0,1-6.21-1.77A8.33,8.33,0,0,1,81,99.53Z"
              style="fill: #c69c6d" />
          </g>
          <g id="left_eyebrow" data-name="+Left Eyebrow">
            <path d="M128.68,87.22c-.73-2.8-2.49-4.47-4.29-6.43a45.8,45.8,0,0,0-5.59-5.15,40.07,40.07,0,0,0-6.37-4,37.5,37.5,0,0,0-3.5-1.57,8.7,8.7,0,0,0-3.87-.54,6.51,6.51,0,0,1,4.13-1.59,16.75,16.75,0,0,1,4.39.46,20.52,20.52,0,0,1,7.89,3.81,22.27,22.27,0,0,1,5.7,6.58,16.76,16.76,0,0,1,1.71,4A7,7,0,0,1,128.68,87.22Z"
              style="fill: url(#未命名的渐变_4-37)" />
            <path d="M126.39,89.26c.17,0,.28-.1.39-.21a3.58,3.58,0,0,0,.28-.37c.17-.27.31-.56.45-.84a5.9,5.9,0,0,0,.58-1.66,2.79,2.79,0,0,0-.5-1.37,8.67,8.67,0,0,0-1-1.29,25.89,25.89,0,0,0-2.63-2.3l-2.9-2.35c-1.93-1.57-3.89-3.08-5.86-4.65s-4-3.12-6-5A20.68,20.68,0,0,1,117,71.18a29.54,29.54,0,0,1,9.71,7.17,14.31,14.31,0,0,1,2.46,3.55,8.63,8.63,0,0,1,.65,2.22,4.17,4.17,0,0,1-.37,2.47,4.47,4.47,0,0,1-.63,1,10,10,0,0,1-.7.76,5.55,5.55,0,0,1-.78.66,3.35,3.35,0,0,1-.45.27C126.75,89.29,126.54,89.37,126.39,89.26Z"
              style="fill: url(#未命名的渐变_4-38)" />
            <path d="M125.66,83.45c-1.86-1.26-3.41-2.53-5-3.67s-3.13-2.22-4.73-3.2-3.26-1.87-4.94-2.67a7.47,7.47,0,0,0-5.44-.75,4.79,4.79,0,0,1,2.68-2.25,8.19,8.19,0,0,1,3.63-.33,16.51,16.51,0,0,1,6.35,2.27,17.25,17.25,0,0,1,4.9,4.53A13.77,13.77,0,0,1,125.66,83.45Z"
              style="fill: url(#未命名的渐变_4-39)" />
            <path d="M126.52,84.72a44.63,44.63,0,0,0-6.08-5.19,69.4,69.4,0,0,0-6.2-4.32,16.4,16.4,0,0,0-6.41-2.31,24.57,24.57,0,0,0-7.72.5A11.69,11.69,0,0,1,107.7,69a12.63,12.63,0,0,1,4.74.17,17.94,17.94,0,0,1,2.26.71,21.16,21.16,0,0,1,2.08,1,23.49,23.49,0,0,1,6.44,5.87A14.15,14.15,0,0,1,126.52,84.72Z"
              style="fill: url(#未命名的渐变_4-40)" />
            <path d="M129,84.82a.81.81,0,0,0,0-.95,2,2,0,0,0-.26-.4c-.08-.08-.23-.19-.37-.33-.29-.24-.56-.5-.83-.75l-.85-.71c-1.14-.93-2.28-1.79-3.47-2.58a55.11,55.11,0,0,0-7.47-4.1c-1.3-.6-2.63-1.19-4-1.76l-1-.43a8.36,8.36,0,0,0-.83-.32,7.21,7.21,0,0,0-1.73-.37c-2.4-.27-5.42.8-8.55,1.14a26.73,26.73,0,0,1,3.71-2.89,11.45,11.45,0,0,1,4.71-1.8,8.75,8.75,0,0,1,2.75.06c.46.07.89.2,1.33.31s.75.23,1.12.36a39.27,39.27,0,0,1,4.33,1.76,27.13,27.13,0,0,1,7.78,5.47,20.52,20.52,0,0,1,2.89,3.82,17.53,17.53,0,0,1,1.05,2.13,6.59,6.59,0,0,1,.23.62,2,2,0,0,1,.06.68,1.5,1.5,0,0,1-.17.65A.67.67,0,0,1,129,84.82Z"
              style="fill: url(#未命名的渐变_4-41)" />
          </g>
          <g id="right_eyebrow" data-name="+Right Eyebrow">
            <path d="M51.22,83.86a6.93,6.93,0,0,1,0-4.41,16.71,16.71,0,0,1,1.86-4A22.21,22.21,0,0,1,59,69.1a20.49,20.49,0,0,1,8-3.51,16.48,16.48,0,0,1,4.4-.3A6.44,6.44,0,0,1,75.47,67a8.66,8.66,0,0,0-3.88.4A34.8,34.8,0,0,0,68,68.86a40,40,0,0,0-6.51,3.79,46.85,46.85,0,0,0-5.78,4.93C53.87,79.48,52.05,81.08,51.22,83.86Z"
              style="fill: url(#未命名的渐变_4-42)" />
            <path d="M52.65,84.32a.93.93,0,0,1-1,0,2.46,2.46,0,0,1-.87-.74,3.46,3.46,0,0,1-.61-2.29,7,7,0,0,1,.52-2.17,10.39,10.39,0,0,1,1-1.89,20.72,20.72,0,0,1,2.62-3,30,30,0,0,1,2.91-2.48,28.45,28.45,0,0,1,6.69-3.72,20.49,20.49,0,0,1,7.53-1.48c-2,1.68-4,3.09-5.9,4.51L59.8,75.31,57,77.43c-.94.72-1.93,1.41-2.73,2.09a11.5,11.5,0,0,0-1.13,1.07,8,8,0,0,0-.91,1.21,2.56,2.56,0,0,0-.38,1.32,1.65,1.65,0,0,0,.21.73A.66.66,0,0,0,52.65,84.32Z"
              style="fill: url(#未命名的渐变_4-43)" />
            <path d="M54.37,80.2a13.8,13.8,0,0,1,2.79-6,17.07,17.07,0,0,1,5.06-4.34,16.23,16.23,0,0,1,6.43-2,8.06,8.06,0,0,1,3.62.46,4.8,4.8,0,0,1,2.59,2.35,7.47,7.47,0,0,0-5.46.55c-1.71.74-3.42,1.59-5,2.49s-3.23,1.91-4.84,3S56.28,79,54.37,80.2Z"
              style="fill: url(#未命名的渐变_4-44)" />
            <path d="M51.84,81.46a14.86,14.86,0,0,1,4.39-6.86,26.32,26.32,0,0,1,6.6-4.76,16.32,16.32,0,0,1,8.31-1.79,11.71,11.71,0,0,1,7.59,3.28,24.44,24.44,0,0,0-7.44.15,25.55,25.55,0,0,0-6.54,2.28c-2.12,1-4.25,2.31-6.45,3.57A53.79,53.79,0,0,0,51.84,81.46Z"
              style="fill: url(#未命名的渐变_4-45)" />
            <path d="M51,81.45a.7.7,0,0,1-.48-.44,1.72,1.72,0,0,1-.14-.68,2.17,2.17,0,0,1,.11-.7,6.34,6.34,0,0,1,.27-.61A20.5,20.5,0,0,1,52,76.86a21,21,0,0,1,3.19-3.79,27.62,27.62,0,0,1,8.33-5.22A42.45,42.45,0,0,1,68,66.29a26.92,26.92,0,0,1,4.84-.93,14.89,14.89,0,0,1,5.06.35A10.21,10.21,0,0,1,82.31,68a17.93,17.93,0,0,0-8.8.7c-1.38.43-2.76.94-4.17,1.49s-2.83,1.09-4.2,1.66a56.4,56.4,0,0,0-7.91,3.9,41.55,41.55,0,0,0-3.7,2.51c-.61.45-1.19.94-1.79,1.44a2.1,2.1,0,0,0-.7.73A.82.82,0,0,0,51,81.45Z"
              style="fill: url(#未命名的渐变_4-46)" />
          </g>
          <line x1="60.01" y1="92.59" x2="78.42" y2="84.89" style="fill: none;stroke: #000;stroke-miterlimit: 10;stroke-width: 3.37870329215138px"
          />
          <line x1="120.82" y1="93.51" x2="102.01" y2="85.64" style="fill: none;stroke: #000;stroke-miterlimit: 10;stroke-width: 3.37870329215138px"
          />
          <path id="mouth" d="M66,118.22h49.35S91,144.81,66,118.22Z" style="fill: #fff" />
        </g>
      </g>
    </g>
  </g>
</svg>