<svg xmlns="http://www.w3.org/2000/svg" xmlns:xlink="http://www.w3.org/1999/xlink" viewBox="0 0 147.42 303"><defs><linearGradient id="a" y1="303.02" x2="1" y2="303.02" gradientTransform="matrix(0, 54.43, -54.43, 0, 16601.37, 179.88)" gradientUnits="userSpaceOnUse"><stop offset="0" stop-color="#29abe2"/><stop offset="1" stop-color="#0071bc"/></linearGradient><linearGradient id="b" y1="303.02" x2="1" y2="303.02" gradientTransform="matrix(-25.18, 26.84, 26.84, 25.18, -8055.89, -7470.83)" xlink:href="#a"/><linearGradient id="c" y1="303.02" x2="1" y2="303.02" gradientTransform="matrix(22.87, 37.85, 37.85, -22.87, -11322.21, 7107.88)" xlink:href="#a"/><linearGradient id="d" y1="303.02" x2="1" y2="303.02" gradientTransform="translate(4379.25 -3248) rotate(51.99) scale(18.01)" gradientUnits="userSpaceOnUse"><stop offset="0" stop-color="#ffdbb3"/><stop offset="1" stop-color="#ffcc8c"/></linearGradient><linearGradient id="e" y1="303.02" y2="303.02" gradientTransform="translate(445.75 -5514.43) rotate(2.86) scale(18.52)" xlink:href="#d"/><linearGradient id="f" y1="303.02" y2="303.02" gradientTransform="matrix(62.55, 51.98, -44.16, 74.83, 13403.03, -22664.69)" xlink:href="#d"/><linearGradient id="g" y1="303.02" x2="1" y2="303.02" gradientTransform="translate(5830.57 -3492.66) rotate(58.48) scale(22.21)" gradientUnits="userSpaceOnUse"><stop offset="0" stop-color="#1a1a1a"/><stop offset="1"/></linearGradient><linearGradient id="h" y1="303.02" y2="303.02" gradientTransform="matrix(18.73, 40.51, -40.51, 18.73, 12385.32, -5681.73)" xlink:href="#g"/><linearGradient id="i" y1="303.02" y2="303.02" gradientTransform="translate(8811.99 -5344.73) rotate(58.48) scale(33.74)" xlink:href="#g"/><linearGradient id="j" y1="303.02" y2="303.02" gradientTransform="translate(7736.41 -3509.83) rotate(65.19) scale(27.67)" xlink:href="#g"/><linearGradient id="k" y1="303.02" y2="303.02" gradientTransform="translate(8781.6 -3870.54) rotate(65.84) scale(31.44)" xlink:href="#g"/><linearGradient id="l" y1="303.02" y2="303.02" gradientTransform="translate(9231.46 -6297.3) rotate(55.3) scale(36.71)" xlink:href="#g"/><linearGradient id="m" y1="303.02" y2="303.02" gradientTransform="matrix(11.11, 24.04, -24.04, 11.11, 7400.81, -3357.05)" xlink:href="#g"/><linearGradient id="n" y1="303.02" y2="303.02" gradientTransform="translate(6242.08 -7840.46) rotate(38.12) scale(33.05)" xlink:href="#g"/><linearGradient id="o" y1="303.02" y2="303.02" gradientTransform="translate(4943.18 -4348.56) rotate(48) scale(21.62)" xlink:href="#g"/><linearGradient id="p" y1="303.02" y2="303.02" gradientTransform="matrix(24.25, 18.67, -18.67, 24.25, 5715.53, -7305.29)" xlink:href="#g"/><linearGradient id="q" y1="303.02" y2="303.02" gradientTransform="translate(6559.19 -8269.11) rotate(38.12) scale(34.79)" xlink:href="#g"/><linearGradient id="r" y1="303.02" y2="303.02" gradientTransform="matrix(19.46, 21.19, -21.19, 19.46, 6475.92, -5867.38)" xlink:href="#g"/><linearGradient id="s" y1="303.02" y2="303.02" gradientTransform="matrix(34.87, -14.09, 14.09, 34.87, -4155.24, -10532.54)" xlink:href="#g"/><linearGradient id="t" y1="303.02" y2="303.02" gradientTransform="translate(24537.99 -10460.67) rotate(66.84) scale(87.68)" xlink:href="#g"/><linearGradient id="u" y1="303.02" y2="303.02" gradientTransform="translate(-385.19 -29165) rotate(-0.88) scale(96.35)" xlink:href="#g"/><linearGradient id="v" y1="303.02" y2="303.02" gradientTransform="matrix(85.26, -9.51, 9.51, 85.26, -2803.89, -25800.21)" xlink:href="#g"/><linearGradient id="w" y1="303.02" y2="303.02" gradientTransform="translate(-2206.19 -7752.32) rotate(-16.7) scale(26.87)" xlink:href="#g"/><linearGradient id="x" y1="303.02" y2="303.02" gradientTransform="matrix(16.92, -13.62, 13.62, 16.92, -3991.64, -5065.25)" xlink:href="#g"/><linearGradient id="y" y1="303.02" y2="303.02" gradientTransform="translate(-186.25 -6476.94) rotate(-2.38) scale(21.44)" xlink:href="#g"/><linearGradient id="z" y1="303.02" y2="303.02" gradientTransform="translate(-252.84 -7866.02) rotate(-2.35) scale(26.07)" xlink:href="#g"/><linearGradient id="aa" y1="303.02" y2="303.02" gradientTransform="translate(-135.08 -5236.56) rotate(-2.37) scale(17.39)" xlink:href="#g"/><linearGradient id="ab" y1="303.02" y2="303.02" gradientTransform="translate(-532.35 -15120.11) rotate(-2.36) scale(50)" xlink:href="#g"/><linearGradient id="ac" y1="303.02" y2="303.02" gradientTransform="translate(-661.76 -18191.09) rotate(-2.35) scale(60.15)" xlink:href="#g"/><linearGradient id="ad" y1="303.02" y2="303.02" gradientTransform="translate(-424.74 -12204.69) rotate(-2.35) scale(40.41)" xlink:href="#g"/><linearGradient id="ae" y1="303.02" y2="303.02" gradientTransform="translate(-444.61 -12430.93) rotate(-2.37) scale(41.17)" xlink:href="#g"/><linearGradient id="af" y1="303.02" y2="303.02" gradientTransform="translate(-304.57 -8996.83) rotate(-2.35) scale(29.81)" xlink:href="#g"/><linearGradient id="ag" y1="303.02" y2="303.02" gradientTransform="translate(-406.43 -11222) rotate(-2.38) scale(37.16)" xlink:href="#g"/><linearGradient id="ah" y1="303.02" y2="303.02" gradientTransform="translate(-270.31 -8075.83) rotate(-2.36) scale(26.75)" xlink:href="#g"/><linearGradient id="ai" y1="303.02" y2="303.02" gradientTransform="translate(-589.33 -16417.78) rotate(-2.36) scale(54.31)" xlink:href="#g"/><linearGradient id="aj" y1="303.02" y2="303.02" gradientTransform="translate(-831.54 -21982.91) rotate(-2.36) scale(72.7)" xlink:href="#g"/><linearGradient id="ak" y1="303.02" y2="303.02" gradientTransform="translate(-559.64 -15232.25) rotate(-2.35) scale(50.41)" xlink:href="#g"/><linearGradient id="al" y1="303.02" y2="303.02" gradientTransform="translate(-407.89 -11066.27) rotate(-2.36) scale(36.66)" xlink:href="#g"/><linearGradient id="am" y1="303.02" y2="303.02" gradientTransform="matrix(26.03, -1.07, 1.07, 26.03, -264.4, -7871.09)" xlink:href="#g"/><linearGradient id="an" y1="303.02" y2="303.02" gradientTransform="translate(-347.86 -10140.37) rotate(-2.36) scale(33.54)" xlink:href="#g"/><linearGradient id="ao" y1="303.02" y2="303.02" gradientTransform="translate(-354.17 -10647.97) rotate(-2.36) scale(35.21)" xlink:href="#g"/><linearGradient id="ap" y1="303.02" y2="303.02" gradientTransform="translate(-240.65 -8331.54) rotate(-2.35) scale(27.55)" xlink:href="#g"/><linearGradient id="aq" y1="303.02" y2="303.02" gradientTransform="translate(-1909.01 9589.37) rotate(-167.78) scale(32.11)" xlink:href="#g"/><linearGradient id="ar" y1="303.02" y2="303.02" gradientTransform="translate(-1567.67 8004.4) rotate(-167.76) scale(26.75)" xlink:href="#g"/><linearGradient id="as" y1="303.02" y2="303.02" gradientTransform="translate(-1502.22 7692.28) rotate(-167.78) scale(25.7)" xlink:href="#g"/><linearGradient id="at" y1="303.02" y2="303.02" gradientTransform="matrix(-31.8, -6.89, 6.89, -31.8, -1940.62, 9715.9)" xlink:href="#g"/><linearGradient id="au" y1="303.02" y2="303.02" gradientTransform="matrix(-34.61, -7.5, 7.5, -34.61, -2122.15, 10568.56)" xlink:href="#g"/><linearGradient id="av" y1="303.02" y2="303.02" gradientTransform="translate(-3151.57 -9100.6) rotate(-19.32) scale(32.11)" xlink:href="#g"/><linearGradient id="aw" y1="303.02" y2="303.02" gradientTransform="translate(-2611.7 -7569.26) rotate(-19.3) scale(26.75)" xlink:href="#g"/><linearGradient id="ax" y1="303.02" y2="303.02" gradientTransform="matrix(24.25, -8.5, 8.5, 24.25, -2504.5, -7268.98)" xlink:href="#g"/><linearGradient id="ay" y1="303.02" y2="303.02" gradientTransform="matrix(29.83, -10.45, 10.45, 29.83, -3097.94, -8958.6)" xlink:href="#g"/><linearGradient id="az" y1="303.02" y2="303.02" gradientTransform="translate(-3727.18 -10749.73) rotate(-19.31) scale(37.87)" xlink:href="#g"/><linearGradient id="ba" y1="303.02" y2="303.02" gradientTransform="matrix(6.43, 0, 0, -6.43, 85.75, 2045.97)" xlink:href="#g"/><linearGradient id="bb" y1="303.02" y2="303.02" gradientTransform="matrix(6.43, 0, 0, -6.43, 124.37, 2047.17)" xlink:href="#g"/></defs><title>net_error</title><rect x="76.24" y="134.09" width="13.51" height="25.21" style="fill:#ffcc8c"/><path d="M83.11,150.26H133a4.82,4.82,0,0,1,4.82,4.82V223.4a2.45,2.45,0,0,1-2.45,2.45H80.74a2.45,2.45,0,0,1-2.45-2.45V155.07A4.82,4.82,0,0,1,83.11,150.26Z" transform="translate(-25.08 -0.02)" style="fill:#ffcc8c"/><rect x="61.92" y="222.43" width="10.89" height="40.55" style="fill:#ffcc8c"/><rect x="93.18" y="222.43" width="10.89" height="40.55" style="fill:#ffcc8c"/><rect x="61.92" y="258.59" width="10.89" height="40.55" style="fill:#ffcc8c"/><rect x="93.18" y="258.59" width="10.89" height="40.55" style="fill:#ffcc8c"/><polyline points="71.45 170.09 64.5 177.04 65.86 178.41 72.81 171.46" style="fill:#c69c6d"/><polyline points="64.5 171.46 71.45 178.41 72.81 177.04 65.86 170.09" style="fill:#c69c6d"/><polyline points="100.13 170.09 93.18 177.04 94.55 178.41 101.49 171.46" style="fill:#c69c6d"/><polyline points="93.18 171.46 100.13 178.41 101.49 177.04 94.55 170.09" style="fill:#c69c6d"/><polygon points="115.58 214.53 50.24 214.53 50.24 231.17 59.71 231.17 59.71 260.92 74.84 260.92 74.84 231.17 90.98 231.17 90.98 260.92 106.1 260.92 106.1 231.17 115.58 231.17 115.58 214.53" style="fill:#034475"/><polyline points="50.24 219.45 54.6 219.45 54.6 217.61 50.24 217.61" style="fill:#262626"/><path d="M125.46,219.47h8.4v-1.84h-8.4Zm-10.83,0H123v-1.84h-8.4Zm-10.84,0h8.4v-1.84h-8.4Zm-10.83,0h8.4v-1.84H93Zm-10.84,0h8.4v-1.84h-8.4Z" transform="translate(-25.08 -0.02)" style="fill:#262626"/><polyline points="111.21 219.45 115.58 219.45 115.58 217.61 111.21 217.61" style="fill:#262626"/><path d="M122.05,150.26l-14,6.61-14-6.61H81.63a6.29,6.29,0,0,0-6.3,6.28v0l.17,58.49h65.16V156.55a6.29,6.29,0,0,0-6.29-6.29H122.05Z" transform="translate(-25.08 -0.02)" style="fill:url(#a)"/><polygon points="75.67 159.95 69.02 150.24 83 156.85 75.67 159.95" style="fill:#fff"/><polygon points="90.33 159.95 96.97 150.24 83 156.85 90.33 159.95" style="fill:#fff"/><path d="M118.86,170.93h13.7v7.74a6.76,6.76,0,0,1-6.76,6.76h-.19a6.76,6.76,0,0,1-6.76-6.76v-7.74Z" transform="translate(-25.08 -0.02)" style="fill:#8fdaff"/><path d="M102.85,296.2c0,5.62-20.81,5.62-20.81,0a10.41,10.41,0,0,1,20.81,0Z" transform="translate(-25.08 -0.02)" style="fill:#212121"/><path d="M134.11,296.2c0,5.62-20.81,5.62-20.81,0a10.41,10.41,0,0,1,20.81,0Z" transform="translate(-25.08 -0.02)" style="fill:#212121"/><path d="M102.85,298.81c0,5.62-20.81,5.62-20.81,0v-3.5c0,5.62,20.81,5.62,20.81,0Z" transform="translate(-25.08 -0.02)" style="fill:#fff"/><path d="M134.11,298.81c0,5.62-20.81,5.62-20.81,0v-3.5c0,5.62,20.81,5.62,20.81,0Z" transform="translate(-25.08 -0.02)" style="fill:#fff"/><path d="M61.3,175.78l15,29.5-9,4.6-15-29.46,0,0a5.09,5.09,0,0,1,9.08-4.59Z" transform="translate(-25.08 -0.02)" style="fill:#ffcc8c"/><path d="M28,232.35c1.93-6.66,6-12.93,13.09-14.79,5.65-1.48,10.53,1.86,16.18-.39,10-4,19.19-10.82,27.11-17.94,1.44-1.29-.68-3.41-2.12-2.12a106.56,106.56,0,0,1-16,11.92,87.69,87.69,0,0,1-9,4.83c-4.15,1.9-6.94.86-11.17.39-10.8-1.18-18.33,7.85-21.07,17.3A1.5,1.5,0,0,0,28,232.35Z" transform="translate(-25.08 -0.02)" style="fill:#8fdaff"/><path d="M71.06,215.35a8.11,8.11,0,1,1,8.63-7.56A8.12,8.12,0,0,1,71.06,215.35Z" transform="translate(-25.08 -0.02)" style="fill:#ffcc8c"/><path d="M53.24,174.84,78.12,153l6.74,7.63L60,182.48h0a5.1,5.1,0,0,1-6.74-7.65Z" transform="translate(-25.08 -0.02)" style="fill:#ffcc8c"/><path d="M86.7,152.31a6.89,6.89,0,0,0-9.74-.64l-23.4,20.51,9.1,10.38,23.4-20.51A6.91,6.91,0,0,0,86.7,152.31Z" transform="translate(-25.08 -0.02)" style="fill:url(#b)"/><path d="M154.31,190.86,123.9,204l-4.05-9.35,30.39-13.08h0a5.08,5.08,0,0,1,4.06,9.31Z" transform="translate(-25.08 -0.02)" style="fill:#ffcc8c"/><path d="M99.65,198.81c7.67.19,15.55.31,22.91,2.72,6.2,2,11.62,5.79,17.63,8.25,5.49,2.25,11.36,2.66,17,4.43,5.78,1.82,7.89,7.06,13.05,9.54,1.74.83,3.26-1.75,1.52-2.59-4.91-2.36-7-7.46-12.45-9.41-6.18-2.23-12.79-2.51-18.88-5.14-6.31-2.72-12-6.62-18.71-8.48-7.15-2-14.68-2.13-22-2.32C97.72,195.77,97.72,198.77,99.65,198.81Z" transform="translate(-25.08 -0.02)" style="fill:#8fdaff"/><path d="M126,191a8.11,8.11,0,1,1-11,3.28A8.11,8.11,0,0,1,126,191Z" transform="translate(-25.08 -0.02)" style="fill:#ffcc8c"/><path d="M147.55,189l-17.14-28.3,8.69-5.26,17.14,28.3v0a5.07,5.07,0,1,1-8.69,5.24Z" transform="translate(-25.08 -0.02)" style="fill:#ffcc8c"/><path d="M131.84,152.27a6.9,6.9,0,0,0-3,9.29L145,188.23l11.81-7.13-16.13-26.62A6.9,6.9,0,0,0,131.84,152.27Z" transform="translate(-25.08 -0.02)" style="fill:url(#c)"/><path d="M65.33,71.54a7.79,7.79,0,0,1,2.55,10c-1.5,3-3.26,5.94-2.88,9.23.24,2.12,1.4,4,2.1,6s.83,4.53-.69,6c-1.35,1.34-3.49,1.38-5.38,1.19-2.89-.3-5.89-1-8-3-2.83-2.64-3.49-6.87-3.37-10.74a36.73,36.73,0,0,1,2.64-12.5A13.84,13.84,0,0,1,55.09,73a8.86,8.86,0,0,1,8.17-2.42A6.31,6.31,0,0,1,65.33,71.54Z" transform="translate(-25.08 -0.02)" style="fill:url(#d)"/><path d="M62.32,82.91c-2.48.21-4,4.52-4.2,6.63-.29,2.77,1.27,5.37,4.19,5.56a.6.6,0,0,0,0-1.19c-2.84-.18-3.39-3.25-2.75-5.5.27-.92,1.55-4.21,2.76-4.31C63.07,84,63.08,82.85,62.32,82.91Z" transform="translate(-25.08 -0.02)" style="fill:#c7b299"/><path d="M62.09,88.86a5.7,5.7,0,0,1,2,1.68c1,1.33.37,2.37-.59,3.46-.5.57.33,1.41.84.84,1-1.11,1.85-2.35,1.32-3.89a6.1,6.1,0,0,0-3-3.11c-.67-.36-1.27.66-.59,1Z" transform="translate(-25.08 -0.02)" style="fill:#c7b299"/><path d="M154.46,75A7.79,7.79,0,0,0,151,84.73c1.22,3.15,2.71,6.2,2,9.45-.43,2.09-1.76,3.87-2.64,5.82s-1.23,4.43.14,6.07c1.23,1.45,3.36,1.69,5.26,1.66,2.9,0,6-.5,8.25-2.28,3.05-2.37,4.09-6.53,4.32-10.39a36.55,36.55,0,0,0-1.5-12.69,14.13,14.13,0,0,0-2.36-4.91,8.88,8.88,0,0,0-7.92-3.15A6.43,6.43,0,0,0,154.46,75Z" transform="translate(-25.08 -0.02)" style="fill:url(#e)"/><path d="M156.15,88.33c1.4.24,2.25,3.5,2.47,4.61.47,2.37-.45,5.25-3.3,5.18a.59.59,0,0,0,0,1.18c2.89.08,4.65-2.4,4.62-5.13,0-2-1.16-6.58-3.48-7-.74-.14-1.06,1-.31,1.14Z" transform="translate(-25.08 -0.02)" style="fill:#c7b299"/><path d="M155.5,92.07a6.1,6.1,0,0,0-3.16,2.78c-.69,1.43,0,2.77.89,3.93.45.61,1.48,0,1-.6-.86-1.17-1.43-2.31-.35-3.57a5.77,5.77,0,0,1,2.19-1.52c.7-.3.1-1.32-.6-1Z" transform="translate(-25.08 -0.02)" style="fill:#c7b299"/><path d="M67.9,49.72c.6-3.41,7.86-26.71,44.5-25,27,1.23,41.75,25.33,42,28.77.36,4-.35,52,.1,57.36,1.21,14.5-27.87,34.81-46.2,34C89.52,144,64.62,123,62.82,106.91c-.17-1.5.07-3.9.47-10.46C64.31,80.35,67.42,52.42,67.9,49.72Z" transform="translate(-25.08 -0.02)" style="fill:url(#f)"/><path d="M119.62,18.72a7,7,0,0,1,1.78,4.05,12.09,12.09,0,0,1-.36,4.56,21,21,0,0,1-3.9,7.54,36.15,36.15,0,0,1-2.53,2.86,32,32,0,0,1-2.74,2.46A36.48,36.48,0,0,1,92.37,48a34.57,34.57,0,0,1-7.19-.12,31.36,31.36,0,0,1-3.73-.68,24.09,24.09,0,0,1-3.91-1.26,33.42,33.42,0,0,1,4.68-6.28A49.54,49.54,0,0,1,87.28,35a59.3,59.3,0,0,1,10.46-6.68c1.75-.9,3.55-1.69,5.35-2.45.91-.37,1.82-.73,2.76-1.07s1.91-.68,2.79-.93c1.8-.56,3.57-1,5.37-1.6A11.22,11.22,0,0,0,119.62,18.72Z" transform="translate(-25.08 -0.02)" style="fill:url(#g)"/><path d="M158.6,3.78a5.73,5.73,0,0,1,1.36,3,8.27,8.27,0,0,1-.3,3.6,14.8,14.8,0,0,1-3.73,6.14,18.91,18.91,0,0,1-2.79,2.34,27.9,27.9,0,0,1-2.9,1.79,38.83,38.83,0,0,1-5.94,2.53c-2,.68-3.88,1.2-5.73,1.66s-3.73.88-5.62,1.21a92.59,92.59,0,0,1-11.37,1.37A90.33,90.33,0,0,1,98.72,26a73.84,73.84,0,0,1-11.21-3.09c-1.84-.69-3.67-1.41-5.47-2.29a40.43,40.43,0,0,1-5.33-3,55.51,55.51,0,0,1,5.73-2c1.88-.56,3.75-1,5.6-1.5,3.7-.88,7.35-1.59,11-2.18A215,215,0,0,1,120.53,9.7c3.58-.2,7.15-.34,10.75-.38h5.42l5.27.15c1.68,0,3.3.09,4.87.06a21.91,21.91,0,0,0,2.32-.08,13.75,13.75,0,0,0,2.12-.23,13.54,13.54,0,0,0,4.23-1.46A6.2,6.2,0,0,0,158.6,3.78Z" transform="translate(-25.08 -0.02)" style="fill:url(#h)"/><path d="M130.21,5.38c1.09,2.89.4,6.3-1,9.06a22.61,22.61,0,0,1-5.63,7.07,28.14,28.14,0,0,1-3.48,2.57c-.61.38-1.19.72-1.81,1.05a18.9,18.9,0,0,1-1.85.94,34.21,34.21,0,0,1-7.82,2.6,34.48,34.48,0,0,1-16.25-.47c-5.25-1.53-10.3-4.23-14-9.09,1.43-.67,2.73-1.11,4-1.59s2.48-.88,3.65-1.26c2.36-.79,4.57-1.45,6.71-2.05C97.06,13,101,12.09,105,11.27c2-.41,4-.77,6-1.14,1-.17,2-.37,3.07-.51l3-.46c2-.32,4-.58,6.13-1.05A20.22,20.22,0,0,0,130.21,5.38Z" transform="translate(-25.08 -0.02)" style="fill:url(#i)"/><path d="M159.52,10.21a22.79,22.79,0,0,1-.66,2.32c-.29.73-.59,1.46-.92,2.16s-.73,1.36-1.11,2-.83,1.31-1.26,2a32.79,32.79,0,0,1-6.27,6.51,42.19,42.19,0,0,1-15.74,7.65,47.42,47.42,0,0,1-16.86,1.25,45,45,0,0,1-8.36-1.67,43.74,43.74,0,0,1-4.16-1.48A30.76,30.76,0,0,1,100,28.82,30.62,30.62,0,0,1,103.7,26c1.25-.85,2.49-1.57,3.74-2.28a70.43,70.43,0,0,1,7.4-3.51,109,109,0,0,1,14.32-4.59c4.66-1.18,9.25-2.16,14.1-3,2.42-.44,4.93-.82,7.58-1.23,1.33-.2,2.68-.42,4.12-.6.71-.12,1.45-.2,2.2-.3S158.68,10.26,159.52,10.21Z" transform="translate(-25.08 -0.02)" style="fill:url(#j)"/><path d="M135.31,29.87a12.2,12.2,0,0,1-3.42,5.75,29.25,29.25,0,0,1-5.24,4.1L124,41.33c-.8.47-1.49.9-2.23,1.38-1.45.93-2.86,1.93-4.29,2.94C111.76,49.7,106,54.41,98.73,58.48a55.06,55.06,0,0,1-12,5.13,36.68,36.68,0,0,1-13.9,1.33,30.31,30.31,0,0,1-18-8.44,25.39,25.39,0,0,1-4-5l6.13.51c2,.13,3.84.22,5.64.19A40.54,40.54,0,0,0,72.38,51a48.33,48.33,0,0,0,8.69-3.24C84,46.41,86.89,44.78,90,43s6.38-3.66,9.93-5.45a70.29,70.29,0,0,1,11.51-4.72,42.78,42.78,0,0,1,6.42-1.42c1.09-.16,2.2-.26,3.3-.31h5.62c.91,0,1.83,0,2.76-.08A19,19,0,0,0,135.31,29.87Z" transform="translate(-25.08 -0.02)" style="fill:url(#k)"/><path d="M135.68,35.2c-1.28,3.85-4.25,7-7.53,9.45a44,44,0,0,1-10.51,5.47c-7.12,2.65-13.88,4-19.41,5.75S86.8,60.26,80,62.69a74.06,74.06,0,0,1-10.74,3c-1,.15-1.91.33-2.87.45s-1.94.22-2.92.26-2,0-3,0a29.91,29.91,0,0,1-3-.33c.66-.79,1.33-1.48,2-2.17s1.29-1.4,1.93-2c1.34-1.35,2.6-2.63,3.84-3.9,2.49-2.55,5-5,7.74-7.39A67.77,67.77,0,0,1,82,44a49.08,49.08,0,0,1,10.93-5,54.12,54.12,0,0,1,11.56-2.19,105,105,0,0,1,10.64-.32c3.4,0,6.68.18,10,.11A44.21,44.21,0,0,0,135.68,35.2Z" transform="translate(-25.08 -0.02)" style="fill:url(#l)"/><path d="M145.56,7.07a2.11,2.11,0,0,0-1.53,1,9.74,9.74,0,0,0-.75,1.43,20.68,20.68,0,0,1-1.8,3.3,48.49,48.49,0,0,1-4.48,6,56.48,56.48,0,0,1-10.53,9.3A55.79,55.79,0,0,1,114,34.53a48.51,48.51,0,0,1-7.19,2c-1.28.23-2.57.46-3.94.59a28.19,28.19,0,0,1-4.31.15,32.17,32.17,0,0,1,3-7.75,41.28,41.28,0,0,1,4.21-6.34A50,50,0,0,1,129.43,7.05a42.81,42.81,0,0,1,7.43-1.62c1.34-.14,2.5-.26,4.24-.36a7.57,7.57,0,0,1,2.59.34A2.8,2.8,0,0,1,145.56,7.07Z" transform="translate(-25.08 -0.02)" style="fill:url(#m)"/><path d="M96.3,20.9c-1.29,1.39-2.55,2.53-3.72,3.73-.59.58-1.15,1.16-1.69,1.75-.27.29-.55.56-.82.83l-.76.88A68.11,68.11,0,0,0,84,34.76a93.61,93.61,0,0,0-7.75,13.82c-2.34,4.93-4.58,10.29-7.3,15.91q-2,4.22-4.55,8.56c-.88,1.43-1.77,2.88-2.8,4.3a33.46,33.46,0,0,1-3.4,4.19,44,44,0,0,1-1.45-5.17c-.39-1.7-.67-3.37-.91-5.06a58.84,58.84,0,0,1-.49-10.1A52,52,0,0,1,60.18,41a42.32,42.32,0,0,1,6-9.35,35.18,35.18,0,0,1,8.68-7.4C81.45,20.29,89.24,18.85,96.3,20.9Z" transform="translate(-25.08 -0.02)" style="fill:url(#n)"/><path d="M87.47,27.42A8.1,8.1,0,0,1,92.76,32,13.61,13.61,0,0,1,94,39a18.35,18.35,0,0,1-1.58,6.18A21.76,21.76,0,0,1,89.51,50a20.48,20.48,0,0,1-8.74,6.38,18.78,18.78,0,0,1-5.64,1.17,17.86,17.86,0,0,1-3.1-.11,15.28,15.28,0,0,1-3.34-.77,31.05,31.05,0,0,1,.55-3.32c.21-1,.45-1.92.69-2.81a36.93,36.93,0,0,1,1.61-4.68,28.09,28.09,0,0,1,4.14-7A24.4,24.4,0,0,1,78.25,36,20.76,20.76,0,0,1,81,34a31.63,31.63,0,0,0,3.11-2.13A12.08,12.08,0,0,0,87.47,27.42Z" transform="translate(-25.08 -0.02)" style="fill:url(#o)"/><path d="M75.3,29a8,8,0,0,1,3,2.77,15.47,15.47,0,0,1,1.76,3.58,30.09,30.09,0,0,1,1.5,6.75,31.1,31.1,0,0,1-7.75,23.57,27,27,0,0,1-5,4.33A23.1,23.1,0,0,1,62,73.2a28.94,28.94,0,0,1-.86-3.77c-.21-1.19-.31-2.31-.43-3.42a42.76,42.76,0,0,1-.07-6.2,42,42,0,0,1,2.11-10.87,43.39,43.39,0,0,1,4.79-10,35.13,35.13,0,0,1,3.65-4.76A23.92,23.92,0,0,0,75.3,29Z" transform="translate(-25.08 -0.02)" style="fill:url(#p)"/><path d="M64.57,12.47a12.09,12.09,0,0,1,6,4.56,20.78,20.78,0,0,1,3.08,6.33,26.7,26.7,0,0,1,1.11,6.27,28.39,28.39,0,0,1-.32,6.18,27.39,27.39,0,0,1-4.61,11.44A24.64,24.64,0,0,1,65.4,52a22.25,22.25,0,0,1-2.83,2,17.16,17.16,0,0,1-3.38,1.61,38,38,0,0,1-2-6.68,43.07,43.07,0,0,1-.81-5.77A42.16,42.16,0,0,1,56.86,33,46,46,0,0,1,58,28.09a37.61,37.61,0,0,1,1.72-4.84c.66-1.57,1.46-3.1,2.29-4.77A48.2,48.2,0,0,0,64.57,12.47Z" transform="translate(-25.08 -0.02)" style="fill:url(#q)"/><path d="M74.21,24.72a32,32,0,0,1-.62,3.36c-.22,1-.42,2-.64,2.83-.41,1.75-.8,3.28-1.17,4.66a41.58,41.58,0,0,1-2.47,7,39.73,39.73,0,0,1-4.07,6.77c-.46.66-.95,1.3-1.47,1.91a23.8,23.8,0,0,1-1.72,2c-.62.66-1.28,1.43-2,2.16a25.56,25.56,0,0,1-2.57,2.3,18.34,18.34,0,0,1-4.08-5.26,28.52,28.52,0,0,1-1.17-2.8,23.85,23.85,0,0,1-.7-2.89A20.25,20.25,0,0,1,53.26,35a19.8,19.8,0,0,1,8.36-9,17,17,0,0,1,6-2A15.33,15.33,0,0,1,74.21,24.72Z" transform="translate(-25.08 -0.02)" style="fill:url(#r)"/><path d="M116.9,10.54a24.77,24.77,0,0,1,4.36-.88,26.32,26.32,0,0,1,3.87-.16,24.12,24.12,0,0,1,6.74,1.15,23.11,23.11,0,0,1,15.94,24.77,23.35,23.35,0,0,1-.81,3.87,20.62,20.62,0,0,1-1.74,4.14c-.87-.07-1.55-.21-2.32-.3a20.28,20.28,0,0,1-2-.36c-1.33-.24-2.47-.54-3.61-.82a38.68,38.68,0,0,1-5.84-2,23.44,23.44,0,0,1-8.22-6,24.56,24.56,0,0,1-5-9A33.72,33.72,0,0,1,117,18.71c-.13-1.18-.22-2.41-.24-3.75A31.1,31.1,0,0,1,116.9,10.54Z" transform="translate(-25.08 -0.02)" style="fill:url(#s)"/><path d="M96.94,3.55a37.39,37.39,0,0,1,6.17.06,57.75,57.75,0,0,1,6,1c1.93.53,3.91,1,5.79,1.72s3.76,1.44,5.55,2.32a70.89,70.89,0,0,1,19.3,13.85,72.9,72.9,0,0,1,13.82,19.18c.85,1.8,1.65,3.62,2.38,5.45s1.28,3.79,1.85,5.69A46.22,46.22,0,0,1,159,58.73a43.47,43.47,0,0,1,.4,6.14,53.69,53.69,0,0,1-4.75-3.76c-1.54-1.24-3-2.51-4.35-3.77s-2.82-2.48-4.13-3.74-2.7-2.47-4-3.73c-5.2-5-10.13-9.87-15-14.87s-9.78-9.87-14.73-15c-1.23-1.29-2.51-2.52-3.74-3.87s-2.54-2.6-3.81-4S102.26,9.53,101,8,98.27,5.22,96.94,3.55Z" transform="translate(-25.08 -0.02)" style="fill:url(#t)"/><path d="M72.3,16.21a.36.36,0,0,1-.47-.1.84.84,0,0,1-.1-.56,1.94,1.94,0,0,1,.41-.94,1.72,1.72,0,0,1,.44-.41L73,14l.67-.42A23.75,23.75,0,0,1,76.5,12L78,11.35l1.5-.53a29,29,0,0,1,3.08-.9,43,43,0,0,1,12.7-1,67.7,67.7,0,0,1,23.67,6.34,93.83,93.83,0,0,1,20,12.41,87.72,87.72,0,0,1,8.69,8c1.35,1.46,2.69,3,4,4.55a46.83,46.83,0,0,1,3.63,5,47.18,47.18,0,0,1-6.16-.8c-2-.35-3.94-.8-5.86-1.27-3.82-1-7.52-2.1-11.1-3.36-7.18-2.5-14-5.41-20.58-8.45s-12.88-6.09-19.29-8.89c-3.22-1.38-6.47-2.71-9.92-3.9-.86-.31-1.74-.61-2.63-.87l-1.35-.44L77,17c-.93-.28-1.88-.53-2.85-.78l-.74-.2c-.13,0-.28-.06-.26-.12L73,15.82a1.15,1.15,0,0,0-.55.1L72.2,16C72.1,16,72.17,16.15,72.3,16.21Z" transform="translate(-25.08 -0.02)" style="fill:url(#u)"/><path d="M86.05,20.48a8.44,8.44,0,0,1-3.74-6.29,8.17,8.17,0,0,1,.85-4.53,7.83,7.83,0,0,1,1.66-2.21A14.22,14.22,0,0,1,86,6.59L87,6a17.15,17.15,0,0,1,8.44-2.06,30.11,30.11,0,0,1,7.56.93,63.34,63.34,0,0,1,12.62,4.73,101.52,101.52,0,0,1,11.19,6.3,96.28,96.28,0,0,1,19.45,16.68,80.86,80.86,0,0,1,7.79,10.34c.57.93,1.13,1.86,1.67,2.81l.84,1.5c.29.52.55,1.09.8,1.65a11.25,11.25,0,0,1,.94,3.74,5.21,5.21,0,0,1-.27,2A3.42,3.42,0,0,1,157,56a3.34,3.34,0,0,0-1.21-2.54A11.65,11.65,0,0,0,153.53,52l-1.27-.63-1.36-.66-2.81-1.43c-1.84-1-3.67-2-5.45-3s-3.56-2-5.3-3c-7-4-13.65-8.26-20.25-12.58-3.3-2.16-6.58-4.34-9.85-6.58s-6.38-4.45-9.35-6.34a46,46,0,0,0-4.27-2.42,13.13,13.13,0,0,0-3.74-1.27h-.45c-.23,0-.14-.08-.23-.15a.68.68,0,0,0-.54-.07A2.73,2.73,0,0,0,87.18,15,8.05,8.05,0,0,0,86.05,20.48Z" transform="translate(-25.08 -0.02)" style="fill:url(#v)"/><path d="M130,12a29,29,0,0,1,10.26,2.35,25.39,25.39,0,0,1,9,6.48,37,37,0,0,1,5.83,9,57.46,57.46,0,0,1,3.32,9.09,63.81,63.81,0,0,1,2.28,18.6c-.39,3.23.27,6.49,0,9.91a18.36,18.36,0,0,1-.95,5.25,6.43,6.43,0,0,1-1.51,2.42c-.68.65-1.33.87-1.69,1.64a2.6,2.6,0,0,1,0-1.3c.09-.43.2-.82.24-1.17a4.84,4.84,0,0,0-.18-1.93A22.32,22.32,0,0,0,155,68.5a42.18,42.18,0,0,0-4.79-7.77,70,70,0,0,1-8.52-16.4c-1-2.78-1.91-5.57-2.7-8.2l-2.14-7.45A57.77,57.77,0,0,0,134,21.23,83.62,83.62,0,0,1,130,12Z" transform="translate(-25.08 -0.02)" style="fill:url(#w)"/><path d="M126.37,32.05a12.75,12.75,0,0,1,2.31-.08,13.38,13.38,0,0,1,2.26.4,12.77,12.77,0,0,1,2.16.73,18.29,18.29,0,0,1,2,.95c.64.35,1.26.73,1.89,1.12s1.17.79,1.73,1.21A36.26,36.26,0,0,1,141.9,39a56,56,0,0,1,9.27,11.48,66.86,66.86,0,0,1,6.19,12.73c.42,1.13.8,2.31,1.14,3.52s.67,2.44,1,3.71a41.92,41.92,0,0,1,1.11,8.34,25.91,25.91,0,0,1-4.22-1.26c-.68-.24-1.31-.53-2-.81s-1.22-.61-1.84-.92c-1.18-.66-2.35-1.33-3.45-2.07a38.41,38.41,0,0,1-3.1-2.37,47.21,47.21,0,0,1-9.91-11.5,54.37,54.37,0,0,1-5.92-13.34c-.34-1.1-.64-2.32-.91-3.42-.14-.57-.28-1.15-.39-1.75l-.39-1.72A45.22,45.22,0,0,0,126.37,32.05Z" transform="translate(-25.08 -0.02)" style="fill:url(#x)"/><path d="M101.67,9a1.44,1.44,0,0,0-.68.56,2.07,2.07,0,0,0-.29.64,8.25,8.25,0,0,0-.2,1.21,5.26,5.26,0,0,1-.39,2.15,10.26,10.26,0,0,1-6.78,5.87,14,14,0,0,1-6.12.19,11.54,11.54,0,0,1,.55-6.21,10,10,0,0,1,2.83-4A10.14,10.14,0,0,1,95,7.16a12.4,12.4,0,0,1,3.43-.42,5,5,0,0,1,2,.57,3.54,3.54,0,0,1,.86.68A1.62,1.62,0,0,1,101.67,9Z" transform="translate(-25.08 -0.02)" style="fill:url(#y)"/><path d="M91.78,18.63c0-.1,0-.18-.1-.17l-.17.1c-.11.09,0,.25-.07.37a2.06,2.06,0,0,1-.08.74,9.51,9.51,0,0,0-.4,1.57c-.17,1-.26,1.83-.49,2.83-.14.53-.31,1-.5,1.55s-.42,1-.66,1.51a19.9,19.9,0,0,1-1.66,2.77A19.09,19.09,0,0,1,83,34.48a16.93,16.93,0,0,1-7.09,2.83,16.84,16.84,0,0,1,.43-7.63,19,19,0,0,1,5-8.32,16.06,16.06,0,0,1,1.22-1.11c.43-.34.86-.68,1.39-1.05a11.53,11.53,0,0,1,3.84-1.91A6.59,6.59,0,0,1,90,17.1a4.17,4.17,0,0,1,1.44.26c.24.12.59.37.65.66a.61.61,0,0,1,0,.46A.27.27,0,0,1,91.78,18.63Z" transform="translate(-25.08 -0.02)" style="fill:url(#z)"/><path d="M96.05,20.42a19.47,19.47,0,0,1,.82,6.21,13,13,0,0,1-.94,4.43,12.66,12.66,0,0,1-2.44,3.77,21.48,21.48,0,0,1-4.89,3.85,10,10,0,0,1-3-5.94,11,11,0,0,1,4.22-10.18A10.56,10.56,0,0,1,96.05,20.42Z" transform="translate(-25.08 -0.02)" style="fill:url(#aa)"/><path d="M94.52,14.5a5.33,5.33,0,0,1,2.66-2.25,27.32,27.32,0,0,1,3-1.16,34.2,34.2,0,0,1,6.08-1.34,37,37,0,0,1,12.42.54,32.06,32.06,0,0,1,11.69,5c3.5,2.47,6.68,5.81,8,10.12-4.32-1.07-7.84-1.91-11.42-2.67l-10.43-2.27c-3.5-.77-7-1.55-10.72-2.57-1.83-.51-3.7-1.06-5.6-1.72-1-.33-1.92-.7-2.79-1A6.74,6.74,0,0,0,94.52,14.5Z" transform="translate(-25.08 -0.02)" style="fill:url(#ab)"/><path d="M92,9.76c0,.51-1.06.34-.86-.5a1.29,1.29,0,0,1,.48-.67,4,4,0,0,1,.56-.34A17.92,17.92,0,0,1,94,7.37a19.78,19.78,0,0,1,4-1.11,29.25,29.25,0,0,1,8.2-.13c1.32.15,2.64.37,3.94.65a31.88,31.88,0,0,1,3.81,1,49.88,49.88,0,0,1,7.36,2.78,50.5,50.5,0,0,1,13,8.68A37.73,37.73,0,0,1,143.59,32c-2.59-.86-4.91-1.9-7.21-2.9s-4.49-2-6.68-3L116.93,20l-12.79-6c-2.12-1-4.23-1.88-6.44-2.68-1.11-.4-2.25-.76-3.44-1.09-.6-.16-1.21-.31-1.84-.45l-.55-.19h-.09c0,.07,0,0,0,.1S91.88,9.92,92,9.76Z" transform="translate(-25.08 -0.02)" style="fill:url(#ac)"/><path d="M116,18.39a3.48,3.48,0,0,0-2.11,1.46,17.72,17.72,0,0,0-1.32,2,49.41,49.41,0,0,1-3.34,4.4,59.79,59.79,0,0,1-7.6,7.41,58.86,58.86,0,0,1-8.77,6A38.76,38.76,0,0,1,82.24,43.8a31,31,0,0,1,5.21-10.3A43.8,43.8,0,0,1,95,25.6a44.54,44.54,0,0,1,9.25-5.84,39.26,39.26,0,0,1,5.26-2,10.78,10.78,0,0,1,3.32-.62,5.81,5.81,0,0,1,1.75.27A2.82,2.82,0,0,1,116,18.39Z" transform="translate(-25.08 -0.02)" style="fill:url(#ad)"/><path d="M108.52,16.56a3.35,3.35,0,0,0-2.33,1.37A10.71,10.71,0,0,0,104.8,20l-.14.28-.2.32-.39.65c-.26.43-.54.83-.81,1.25-.54.84-1.11,1.64-1.68,2.43a81.41,81.41,0,0,1-7.4,8.76,80.31,80.31,0,0,1-8.53,7.65,49.39,49.39,0,0,1-10.46,6.4A33.3,33.3,0,0,1,79.45,36a46.65,46.65,0,0,1,7.26-9.56,48.43,48.43,0,0,1,9.35-7.52c.87-.52,1.75-1,2.66-1.5.46-.22.91-.46,1.38-.67l1.47-.68a10,10,0,0,1,3.61-.87,5.12,5.12,0,0,1,1.9.27A2.85,2.85,0,0,1,108.52,16.56Z" transform="translate(-25.08 -0.02)" style="fill:url(#ae)"/><path d="M91.29,15.89a1.58,1.58,0,0,0-.63,1c-.1.33-.14.69-.21,1a22.73,22.73,0,0,1-.6,2.33,38.67,38.67,0,0,1-1.63,4.27,42.37,42.37,0,0,1-4.36,7.41,41.46,41.46,0,0,1-5.75,6.38,30.63,30.63,0,0,1-8,5.31,22,22,0,0,1,1.11-9.76,29.15,29.15,0,0,1,4.24-8.1,29.8,29.8,0,0,1,6.47-6.46A27.81,27.81,0,0,1,86,16.85c.76-.35,1.47-.64,2.34-1a5.71,5.71,0,0,1,1.46-.38A2,2,0,0,1,91.29,15.89Z" transform="translate(-25.08 -0.02)" style="fill:url(#af)"/><path d="M93.42,14.16a6.19,6.19,0,0,0-4.83,1.65A14.74,14.74,0,0,0,86,19.29l-1.28,2.2c-.48.79-1,1.62-1.51,2.4Q81.67,26.25,80,28.45c-1.08,1.47-2.17,2.9-3.29,4.31s-2.22,2.8-3.37,4.19l-3.49,4.3c-1.2,1.49-2.39,3-3.85,4.75a17.49,17.49,0,0,1-1-6.41,26.53,26.53,0,0,1,1-6.32,35.08,35.08,0,0,1,5.59-11,48.15,48.15,0,0,1,3.88-4.56c.69-.72,1.39-1.38,2.14-2.08a30.28,30.28,0,0,1,2.56-2.09,15.93,15.93,0,0,1,3.22-1.81,10.42,10.42,0,0,1,3.81-.82,8.29,8.29,0,0,1,3.7.78A4.86,4.86,0,0,1,93.42,14.16Z" transform="translate(-25.08 -0.02)" style="fill:url(#ag)"/><path d="M86.85,6.89A31.63,31.63,0,0,0,85,11.59c-.48,1.46-1,2.93-1.53,4.4a83.57,83.57,0,0,1-3.73,8.17,80.12,80.12,0,0,1-4.58,7.73,49.82,49.82,0,0,1-6.4,7.87,21.09,21.09,0,0,1-1.34-10.6,29,29,0,0,1,9.41-17.95,22.76,22.76,0,0,1,4.44-3.09A9.7,9.7,0,0,1,86.85,6.89Z" transform="translate(-25.08 -0.02)" style="fill:url(#ah)"/><path d="M90.31,12.11A40.08,40.08,0,0,1,105,12a58.23,58.23,0,0,1,26.21,11.45,40.27,40.27,0,0,1,9.88,10.89,80.91,80.91,0,0,1-13.85-3.72c-4.33-1.52-8.49-3.18-12.6-5s-8.15-3.74-12.2-5.88A85.23,85.23,0,0,1,90.31,12.11Z" transform="translate(-25.08 -0.02)" style="fill:url(#ai)"/><path d="M77.62,14a22.77,22.77,0,0,1,9.92-2.63,39.52,39.52,0,0,1,10.29.94,68.58,68.58,0,0,1,9.61,2.9c1.53.56,3,1.19,4.54,1.8s3,1.33,4.46,2a109,109,0,0,1,16.86,9.88,74.61,74.61,0,0,1,14.6,13.34A133,133,0,0,1,129.35,36c-5.91-2.38-11.68-4.93-17.37-7.64l-4.26-2.06c-1.41-.72-2.84-1.39-4.24-2.12C100.69,22.76,98,21.33,95.22,20A60.9,60.9,0,0,0,77.62,14Z" transform="translate(-25.08 -0.02)" style="fill:url(#aj)"/><path d="M112.21,18.83c.06-.15,0-.28-.09-.25h-.28a1.82,1.82,0,0,0-.65.2c-.27.18-.79.5-1.23.76-.89.54-1.72,1.09-2.52,1.66-1.59,1.14-3.08,2.3-4.62,3.5-3.11,2.44-6.36,4.7-9.56,6.87s-6.49,4.26-9.94,6.27c-1.73,1-3.47,2-5.33,3a57.7,57.7,0,0,1-5.94,2.84,28.67,28.67,0,0,1,5.82-11.94,40.61,40.61,0,0,1,9.59-8.81,42.68,42.68,0,0,1,11.76-5.55,25.09,25.09,0,0,1,6.83-1.07,15.92,15.92,0,0,1,3.51.38c.29.06.57.13.85.21a5.86,5.86,0,0,1,1,.33,3.22,3.22,0,0,1,.82.65,1.13,1.13,0,0,1,.29.51.38.38,0,0,1-.31.44Z" transform="translate(-25.08 -0.02)" style="fill:url(#ak)"/><path d="M84.3,13c-2.35.77-3.38,2.31-4.44,3.89-.51.79-1,1.64-1.46,2.51s-1,1.83-1.56,2.72c-2.1,3.62-4.27,7-6.45,10.46S66,39.38,63.58,42.8a97.83,97.83,0,0,1-8.12,10.46,31.32,31.32,0,0,1,.65-13.82A44,44,0,0,1,70.69,16.71a13.93,13.93,0,0,1,1.36-1c.45-.3.89-.68,1.42-1a19.77,19.77,0,0,1,3.3-1.85,11,11,0,0,1,3.86-.92A5.49,5.49,0,0,1,84.3,13Z" transform="translate(-25.08 -0.02)" style="fill:url(#al)"/><path d="M65,29.07a18.49,18.49,0,0,1-.2-8.9,23.44,23.44,0,0,1,3.09-7.58,23,23,0,0,1,5.48-6.1,17.89,17.89,0,0,1,8.17-3.63A27.33,27.33,0,0,1,80,11.36a32.61,32.61,0,0,1-3.25,6.76A33.16,33.16,0,0,1,72,24,26,26,0,0,1,65,29.07Z" transform="translate(-25.08 -0.02)" style="fill:url(#am)"/><path d="M74.87,25.58a21.74,21.74,0,0,1,2.54-9.69,28.87,28.87,0,0,1,5.64-7.57,28.49,28.49,0,0,1,7.73-5.41A21.41,21.41,0,0,1,100.56.68,34.43,34.43,0,0,1,96,9.25a48.67,48.67,0,0,1-5.7,6.55,48.24,48.24,0,0,1-6.73,5.46A34.15,34.15,0,0,1,74.87,25.58Z" transform="translate(-25.08 -0.02)" style="fill:url(#an)"/><path d="M86.62,22.84c1.27-1.5,1.58-2.9,2.27-4.42A30.29,30.29,0,0,1,91.43,14,34.23,34.23,0,0,1,107.08,1.78,24.5,24.5,0,0,1,117.55.06a36.37,36.37,0,0,1-5.9,8.49,55.32,55.32,0,0,1-6.89,6.36A54.7,54.7,0,0,1,96.9,20a47.46,47.46,0,0,1-4.52,2.1,14.08,14.08,0,0,1-2.76.88A5.38,5.38,0,0,1,86.62,22.84Z" transform="translate(-25.08 -0.02)" style="fill:url(#ao)"/><path d="M105.88,18.15a13.61,13.61,0,0,1,1.91-7.78,16.72,16.72,0,0,1,5-5.35,16.46,16.46,0,0,1,6.79-2.74,13.35,13.35,0,0,1,8,1.06,26.81,26.81,0,0,1-4.24,6.25,25.87,25.87,0,0,1-4.61,4,26.53,26.53,0,0,1-5.43,2.85A26.69,26.69,0,0,1,105.88,18.15Z" transform="translate(-25.08 -0.02)" style="fill:url(#ap)"/><path d="M100.3,108.47a14.92,14.92,0,0,0,4.69,2.88,12.07,12.07,0,0,0,4.9.82,17.27,17.27,0,0,0,5-1.17c1.72-.63,3.47-1.45,5.4-2.06a17,17,0,0,1-4.29,4.2,11.87,11.87,0,0,1-6,2.09,10.15,10.15,0,0,1-6.21-1.77A8.3,8.3,0,0,1,100.3,108.47Z" transform="translate(-25.08 -0.02)" style="fill:#c69c6d"/><path d="M147.39,86.79c-1.17-2.65-3.18-4-5.27-5.66a44.57,44.57,0,0,0-6.34-4.19A39.73,39.73,0,0,0,128.86,74c-1.22-.39-2.46-.72-3.71-1a8.61,8.61,0,0,0-3.91.09,6.49,6.49,0,0,1,3.83-2.23,16.65,16.65,0,0,1,4.4-.25,20.47,20.47,0,0,1,8.4,2.5,22.48,22.48,0,0,1,6.68,5.59,17.14,17.14,0,0,1,2.33,3.67A7,7,0,0,1,147.39,86.79Z" transform="translate(-25.08 -0.02)" style="fill:url(#aq)"/><path d="M145.45,89.17a.53.53,0,0,0,.35-.27,3.23,3.23,0,0,0,.22-.41c.12-.29.22-.6.31-.9a6,6,0,0,0,.31-1.73,2.82,2.82,0,0,0-.72-1.28,8.94,8.94,0,0,0-1.19-1.11,25.74,25.74,0,0,0-3-1.85l-3.24-1.86c-2.16-1.24-4.33-2.42-6.53-3.65s-4.44-2.44-6.72-4a20.64,20.64,0,0,1,8,.69A29.43,29.43,0,0,1,144,78.35a14.51,14.51,0,0,1,3,3.11,8.93,8.93,0,0,1,1,2.09A4.15,4.15,0,0,1,148,86a4.2,4.2,0,0,1-.46,1.09A7.12,7.12,0,0,1,147,88a5.45,5.45,0,0,1-.66.78,4.23,4.23,0,0,1-.4.34C145.81,89.14,145.62,89.25,145.45,89.17Z" transform="translate(-25.08 -0.02)" style="fill:url(#ar)"/><path d="M143.8,83.55c-2-1-3.77-2-5.52-2.82s-3.44-1.7-5.18-2.41-3.52-1.32-5.3-1.85a7.49,7.49,0,0,0-5.49.13A4.83,4.83,0,0,1,124.59,74a8.22,8.22,0,0,1,3.54-.9,16.41,16.41,0,0,1,6.63,1.23A17.26,17.26,0,0,1,140.32,78,13.73,13.73,0,0,1,143.8,83.55Z" transform="translate(-25.08 -0.02)" style="fill:url(#as)"/><path d="M144.85,84.67A44,44,0,0,0,138,80.51a71,71,0,0,0-6.81-3.27A16.52,16.52,0,0,0,124.52,76,24.7,24.7,0,0,0,117,77.71a11.69,11.69,0,0,1,6.79-5.56,12.67,12.67,0,0,1,4.7-.59,20.78,20.78,0,0,1,2.35.34,21.54,21.54,0,0,1,2.21.66,23.41,23.41,0,0,1,7.29,4.77A14,14,0,0,1,144.85,84.67Z" transform="translate(-25.08 -0.02)" style="fill:url(#at)"/><path d="M147.32,84.37a.81.81,0,0,0-.15-.94,2.15,2.15,0,0,0-.32-.35c-.1-.07-.26-.15-.42-.27-.33-.19-.63-.4-.94-.61l-1-.56c-1.28-.74-2.54-1.4-3.84-2a54.39,54.39,0,0,0-8-2.86c-1.38-.38-2.79-.75-4.23-1.1l-1.06-.26a7.88,7.88,0,0,0-.87-.19,7.4,7.4,0,0,0-1.76-.09c-2.42.12-5.22,1.66-8.26,2.5a25.51,25.51,0,0,1,3.2-3.45,11.47,11.47,0,0,1,4.36-2.53,8.67,8.67,0,0,1,2.73-.38c.46,0,.91.06,1.36.09a11.36,11.36,0,0,1,1.16.18,39.62,39.62,0,0,1,4.56,1,27.06,27.06,0,0,1,8.55,4.16,20.4,20.4,0,0,1,3.46,3.3A16.27,16.27,0,0,1,147.25,82q.18.28.33.57a2.2,2.2,0,0,1,.17.67,1.71,1.71,0,0,1-.07.67A.71.71,0,0,1,147.32,84.37Z" transform="translate(-25.08 -0.02)" style="fill:url(#au)"/><path d="M70.49,86a6.93,6.93,0,0,1,0-4.41,16.37,16.37,0,0,1,1.86-4,22.13,22.13,0,0,1,5.92-6.35,20.46,20.46,0,0,1,8-3.51,16.21,16.21,0,0,1,4.4-.3,6.46,6.46,0,0,1,4.07,1.71,8.65,8.65,0,0,0-3.88.4A35,35,0,0,0,87.27,71a38.79,38.79,0,0,0-6.51,3.79A46,46,0,0,0,75,79.7C73.14,81.6,71.32,83.2,70.49,86Z" transform="translate(-25.08 -0.02)" style="fill:url(#av)"/><path d="M71.92,86.44a1,1,0,0,1-1,0,2.49,2.49,0,0,1-.87-.74,3.46,3.46,0,0,1-.61-2.29A6.76,6.76,0,0,1,70,81.24a10.35,10.35,0,0,1,1-1.89,20.2,20.2,0,0,1,2.62-3,28.65,28.65,0,0,1,2.91-2.48,28.1,28.1,0,0,1,6.69-3.72,20.44,20.44,0,0,1,7.53-1.48c-2,1.68-4,3.09-5.9,4.51l-5.74,4.25-2.8,2.12c-.94.72-1.93,1.41-2.73,2.09a11.43,11.43,0,0,0-1.13,1.07,7.66,7.66,0,0,0-.91,1.21,2.47,2.47,0,0,0-.38,1.32,1.58,1.58,0,0,0,.21.73A.67.67,0,0,0,71.92,86.44Z" transform="translate(-25.08 -0.02)" style="fill:url(#aw)"/><path d="M73.64,82.32a13.68,13.68,0,0,1,2.79-6A16.88,16.88,0,0,1,81.49,72a16.21,16.21,0,0,1,6.43-2,8,8,0,0,1,3.62.46,4.81,4.81,0,0,1,2.59,2.35,7.44,7.44,0,0,0-5.46.55,51.73,51.73,0,0,0-5,2.49c-1.58.9-3.23,1.91-4.84,3S75.55,81.12,73.64,82.32Z" transform="translate(-25.08 -0.02)" style="fill:url(#ax)"/><path d="M71.11,83.58a14.75,14.75,0,0,1,4.39-6.86A26.06,26.06,0,0,1,82.1,72a16.29,16.29,0,0,1,8.31-1.79A11.71,11.71,0,0,1,98,73.45a24.42,24.42,0,0,0-7.44.15A25.52,25.52,0,0,0,84,75.88c-2.12,1-4.25,2.31-6.45,3.57A53.19,53.19,0,0,0,71.11,83.58Z" transform="translate(-25.08 -0.02)" style="fill:url(#ay)"/><path d="M70.27,83.57a.69.69,0,0,1-.48-.44,1.8,1.8,0,0,1-.14-.68,2.05,2.05,0,0,1,.11-.7,6.65,6.65,0,0,1,.27-.61A19.18,19.18,0,0,1,71.27,79a20.68,20.68,0,0,1,3.19-3.79A27.48,27.48,0,0,1,82.79,70a41.64,41.64,0,0,1,4.48-1.56,26.52,26.52,0,0,1,4.84-.93,14.88,14.88,0,0,1,5.06.35,10.21,10.21,0,0,1,4.41,2.29,17.89,17.89,0,0,0-8.8.7c-1.38.43-2.76.94-4.17,1.49S85.78,73.4,84.41,74a55.3,55.3,0,0,0-7.91,3.9,40.73,40.73,0,0,0-3.7,2.51c-.61.45-1.19.94-1.79,1.44a2,2,0,0,0-.7.73A.81.81,0,0,0,70.27,83.57Z" transform="translate(-25.08 -0.02)" style="fill:url(#az)"/><path d="M93.51,129.75a20.31,20.31,0,0,1,7-4.3,23.7,23.7,0,0,1,8.19-1.53,25.66,25.66,0,0,1,4.2.32,23,23,0,0,1,4,1.18,19.46,19.46,0,0,1,6.87,4.51,56.39,56.39,0,0,0-7.55-2.25c-1.24-.33-2.51-.41-3.75-.62-1.26,0-2.51-.21-3.77-.14a40.71,40.71,0,0,0-7.57.79A64.64,64.64,0,0,0,93.51,129.75Z" transform="translate(-25.08 -0.02)"/><path d="M96.35,92.35a8.45,8.45,0,1,1-8.45-8.44A8.45,8.45,0,0,1,96.35,92.35Z" transform="translate(-25.08 -0.02)" style="fill:#fff"/><path d="M137.85,94.1a8.45,8.45,0,1,1-8.45-8.44A8.45,8.45,0,0,1,137.85,94.1Z" transform="translate(-25.08 -0.02)" style="fill:#fff"/><path d="M92.17,97.8A3.21,3.21,0,1,1,89,94.59,3.2,3.2,0,0,1,92.17,97.8Z" transform="translate(-25.08 -0.02)" style="fill:url(#ba)"/><path d="M130.8,99a3.22,3.22,0,1,1-3.21-3.21A3.22,3.22,0,0,1,130.8,99Z" transform="translate(-25.08 -0.02)" style="fill:url(#bb)"/></svg>